<?xml version="1.0" encoding="utf-8"?>
<!-- Generator: Adobe Illustrator 19.1.0, SVG Export Plug-In . SVG Version: 6.00 Build 0)  -->
<svg version="1.1" id="Layer_1" xmlns="http://www.w3.org/2000/svg" xmlns:xlink="http://www.w3.org/1999/xlink" x="0px" y="0px"
	 viewBox="0 0 403.2 325.4" style="enable-background:new 0 0 403.2 325.4;" xml:space="preserve">
<style type="text/css">
	.st0{fill:#FFFFFF;}
	.st1{fill:#939598;}
	.st2{clip-path:url(#SVGID_4_);fill:#D9B338;}
	.st3{clip-path:url(#SVGID_6_);fill:#D9B338;}
	.st4{clip-path:url(#SVGID_8_);fill:#D9B338;}
	.st5{clip-path:url(#SVGID_10_);fill:#D9B338;}
	.st6{clip-path:url(#SVGID_12_);fill:#D9B338;}
	.st7{clip-path:url(#SVGID_14_);fill:#D9B338;}
	.st8{clip-path:url(#SVGID_16_);fill:#D9B338;}
</style>
<g>
	<g>
		<g>
			<g>
				<defs>
					<rect id="SVGID_1_" x="39" y="22.4" width="336.7" height="241.8"/>
				</defs>
				<clipPath id="SVGID_2_">
					<use xlink:href="#SVGID_1_"  style="overflow:visible;"/>
				</clipPath>
			</g>
		</g>
	</g>
	<g>
		<path d="M108.7,59.8l1.6-0.3V48.2h-1.6l-2.2,3.9H106v-4.7h12.3v4.7h-0.5l-2.2-3.9h-1.6v11.3l1.5,0.3v0.4h-7V59.8z"/>
		<path d="M118.4,59.8l1.5-0.3V46.3h-1.7v-0.5l3.6-1h1.4v6.7c1.3-1,2.5-1.5,3.9-1.5c1.7,0,3.1,1.1,3.1,3.8v5.8l1.3,0.3v0.4h-6.1
			v-0.4l1.4-0.3v-5.2c0-1.9-0.9-2.6-2.2-2.6c-0.4,0-0.9,0.1-1.4,0.2v7.5l1.3,0.3v0.4h-6.1V59.8z"/>
		<path d="M135.5,55.1c0.1,2.6,1.8,3.5,3.3,3.5c0.9,0,2-0.2,2.9-0.6l0.2,0.3c-0.9,1.1-2.8,2.2-4.8,2.2c-3.1,0-5.2-1.6-5.2-5
			c0-3.6,2.9-5.5,5.8-5.5c3,0,4.8,1.9,4.8,5.2H135.5z M135.5,54.4l3.4-0.2c0-1.6-0.5-3.4-1.6-3.4C136.1,50.7,135.6,52.1,135.5,54.4z
			"/>
		<path d="M146.7,59.8l1.7-0.3V48.2l-1.7-0.3v-0.4h6.6c2.9,0,5,1.1,5,3.2c0,1.4-1.1,2.6-2.3,3v0c1,0.1,3.1,0.6,3.1,2.9
			c0,2.1-1.9,3.7-5.3,3.7h-7.2V59.8z M152.1,48.1v5.2h0.2c1.1,0,2.3-0.7,2.3-2.5c0-1.6-0.7-2.8-2.2-2.8H152.1z M152.1,54.1v5.3h0.3
			c2,0,2.9-1.3,2.9-2.8c0-2-1.5-2.5-2.9-2.5H152.1z"/>
		<path d="M167.8,58.9c-1.2,1-2.3,1.5-3.7,1.5c-1.7,0-3.1-1.1-3.1-3.8v-5.2h-1.7v-0.5l3.6-1h1.5V56c0,1.9,0.9,2.6,2.2,2.6
			c0.4,0,0.7,0,1.1-0.2v-7H166v-0.5l3.6-1h1.4v9.2l1.3,0.6v0.5h-4.1L167.8,58.9z"/>
		<path d="M172.9,60v-3h0.9l1.5,2.4c0.4,0.2,1,0.3,1.5,0.3c0.8,0,1.9-0.2,1.9-1.5c0-1.9-5.8-1.2-5.8-5.2c0-2.1,2.6-3,4.8-3
			c1.5,0,2.9,0.2,4,0.7v2.5h-1l-1.3-2.1c-0.3-0.1-0.9-0.2-1.3-0.2c-1,0-1.9,0.6-1.9,1.3c0,2.1,5.8,1.1,5.8,5.1c0,1.8-2.1,3.2-5,3.2
			C176.1,60.4,174.5,60.3,172.9,60z"/>
		<path d="M182.5,59.8l1.5-0.3v-8.1h-1.6v-0.5l3.6-1h1.4v9.6l1.5,0.3v0.4h-6.3V59.8z M185.7,45.1c1.3,0,2,0.6,2,1.7s-0.7,1.7-2,1.7
			c-1.2,0-2-0.6-2-1.7S184.5,45.1,185.7,45.1z"/>
		<path d="M189.1,59.8l1.5-0.3v-8.1h-1.6v-0.5l3.6-1h0.9l0.5,1.5c1.2-1,2.4-1.5,3.8-1.5c1.7,0,3.1,1.1,3.1,3.8v5.8l1.3,0.3v0.4h-6.1
			v-0.4l1.4-0.3v-5.2c0-1.9-0.9-2.6-2.2-2.6c-0.4,0-0.8,0.1-1.3,0.2v7.6l1.3,0.3v0.4h-6.1V59.8z"/>
		<path d="M206,55.1c0.1,2.6,1.8,3.5,3.3,3.5c0.9,0,2-0.2,2.9-0.6l0.2,0.3c-0.9,1.1-2.8,2.2-4.8,2.2c-3.1,0-5.2-1.6-5.2-5
			c0-3.6,2.9-5.5,5.8-5.5c3,0,4.8,1.9,4.8,5.2H206z M206,54.4l3.4-0.2c0-1.6-0.5-3.4-1.6-3.4C206.7,50.7,206.1,52.1,206,54.4z"/>
		<path d="M213.7,60v-3h0.9l1.5,2.4c0.4,0.2,1,0.3,1.5,0.3c0.8,0,1.9-0.2,1.9-1.5c0-1.9-5.8-1.2-5.8-5.2c0-2.1,2.6-3,4.8-3
			c1.5,0,2.9,0.2,4,0.7v2.5h-1l-1.3-2.1c-0.3-0.1-0.9-0.2-1.3-0.2c-1,0-1.9,0.6-1.9,1.3c0,2.1,5.8,1.1,5.8,5.1c0,1.8-2.1,3.2-5,3.2
			C217,60.4,215.3,60.3,213.7,60z"/>
		<path d="M223.5,60v-3h0.9l1.5,2.4c0.4,0.2,1,0.3,1.5,0.3c0.8,0,1.9-0.2,1.9-1.5c0-1.9-5.8-1.2-5.8-5.2c0-2.1,2.6-3,4.8-3
			c1.5,0,2.9,0.2,4,0.7v2.5h-1l-1.3-2.1c-0.3-0.1-0.9-0.2-1.3-0.2c-1,0-1.9,0.6-1.9,1.3c0,2.1,5.8,1.1,5.8,5.1c0,1.8-2.1,3.2-5,3.2
			C226.7,60.4,225.1,60.3,223.5,60z"/>
		<path d="M244.4,48.5c-0.6-0.3-1.3-0.5-2.1-0.5c-1.5,0-2.4,0.9-2.4,1.9c0,1.1,1.4,1.8,2.9,2.3c1.9,0.6,4,1.4,4,4.1
			c0,2.9-2.4,4-5.7,4c-1.5,0-2.9-0.3-4.3-0.9v-3.7h0.6l1.3,3.1c0.9,0.5,1.8,0.7,2.5,0.7c1.3,0,2.4-0.8,2.4-2c0-1.2-2-1.8-3.7-2.5
			c-1.5-0.6-3-1.5-3-3.8c0-2.7,2.2-4.1,5.2-4.1c1.8,0,3.3,0.4,4.1,0.8v3.4h-0.6L244.4,48.5z"/>
		<path d="M251.2,55.1c0.1,2.6,1.8,3.5,3.3,3.5c0.9,0,2-0.2,2.9-0.6l0.2,0.3c-0.9,1.1-2.8,2.2-4.8,2.2c-3.1,0-5.2-1.6-5.2-5
			c0-3.6,2.9-5.5,5.8-5.5c3,0,4.8,1.9,4.8,5.2H251.2z M251.2,54.4l3.4-0.2c0-1.6-0.5-3.4-1.6-3.4C251.8,50.7,251.2,52.1,251.2,54.4z
			"/>
		<path d="M265.8,50.9c-0.2,0-0.4,0-0.6,0c-1.8,0-2.9,1.9-2.9,3.8c0,2.2,1.5,4.1,3.1,4.1c1.2,0,1.8-0.2,2.9-0.7l0.2,0.3
			c-0.7,1-2.6,2.1-4.6,2.1c-3,0-5.2-1.9-5.2-5c0-3.4,2.6-5.5,5.5-5.5c1.6,0,3,0.4,4.2,1V54h-1L265.8,50.9z"/>
		<path d="M277.3,59.6c-0.9,0.5-1.9,0.8-3.4,0.8c-1.9,0-3.6-0.6-3.6-3.5v-5.3h-1.5V51l1.5-0.5l1.1-2.7h2.2v2.7h3.3v1.1h-3.3v5
			c0,1.4,0.4,2.5,2,2.5c0.5,0,1-0.1,1.4-0.2L277.3,59.6z"/>
		<path d="M277.8,59.8l1.5-0.3v-8.1h-1.7v-0.5l3.6-1h1.4v9.6l1.5,0.3v0.4h-6.3V59.8z M281,45.1c1.3,0,2,0.6,2,1.7s-0.7,1.7-2,1.7
			c-1.2,0-2-0.6-2-1.7S279.8,45.1,281,45.1z"/>
		<path d="M289.9,60.4c-3,0-5.4-0.9-5.4-5c0-3.8,2.8-5.5,5.5-5.5c3.2,0,5.4,1.4,5.4,5.4C295.4,58.9,292.8,60.4,289.9,60.4z
			 M289.8,50.8c-1.5,0-1.7,2.1-1.7,4.1c0,2.5,0.6,4.6,1.9,4.6c1.4,0,1.8-2.1,1.8-4C291.8,53.5,291.4,50.8,289.8,50.8z"/>
		<path d="M296.2,59.8l1.5-0.3v-8.1H296v-0.5l3.6-1h0.9l0.5,1.5c1.2-1,2.4-1.5,3.8-1.5c1.7,0,3.1,1.1,3.1,3.8v5.8l1.3,0.3v0.4H303
			v-0.4l1.4-0.3v-5.2c0-1.9-0.9-2.6-2.2-2.6c-0.4,0-0.8,0.1-1.3,0.2v7.6l1.3,0.3v0.4h-6.1V59.8z"/>
	</g>
	<g>
		<path d="M74.2,78.2V74h-1.5v-0.8h3.9V74h-1.5v4.2H74.2z"/>
		<path d="M79.8,78.2v-2.3c0-0.6-0.3-0.7-0.7-0.7c-0.4,0-0.7,0.2-0.9,0.5v2.5h-0.8v-5h0.8v1.9c0.2-0.3,0.7-0.6,1.3-0.6
			c0.8,0,1.2,0.4,1.2,1.1v2.6H79.8z"/>
		<path d="M81.5,76.4c0-1.1,0.8-1.9,1.8-1.9c1.1,0,1.8,0.8,1.8,2v0.2h-2.8c0.1,0.5,0.5,1,1.2,1c0.4,0,0.8-0.1,1-0.4l0.4,0.5
			c-0.4,0.3-0.9,0.5-1.5,0.5C82.3,78.3,81.5,77.6,81.5,76.4z M83.3,75.2c-0.7,0-1,0.5-1,1h2C84.3,75.7,84,75.2,83.3,75.2z"/>
		<path d="M87.2,77.8l0.4-0.6c0.3,0.3,0.8,0.5,1.2,0.5c0.5,0,0.7-0.2,0.7-0.5c0-0.7-2.2-0.2-2.2-1.6c0-0.6,0.5-1.1,1.4-1.1
			c0.6,0,1.1,0.2,1.4,0.5l-0.3,0.6c-0.2-0.2-0.6-0.4-1.1-0.4c-0.4,0-0.7,0.2-0.7,0.4c0,0.6,2.2,0.2,2.2,1.6c0,0.6-0.5,1.1-1.5,1.1
			C88.1,78.3,87.5,78.1,87.2,77.8z"/>
		<path d="M90.8,76.4c0-1,0.7-1.9,1.9-1.9c1.2,0,1.9,0.9,1.9,1.9c0,1-0.7,1.9-1.9,1.9C91.6,78.3,90.8,77.5,90.8,76.4z M93.8,76.4
			c0-0.6-0.4-1.2-1.1-1.2c-0.7,0-1,0.6-1,1.2c0,0.6,0.4,1.2,1,1.2C93.4,77.6,93.8,77.1,93.8,76.4z"/>
		<path d="M97.8,78.2v-0.5c-0.3,0.3-0.7,0.6-1.3,0.6c-0.8,0-1.2-0.4-1.2-1.1v-2.6h0.8v2.3c0,0.6,0.3,0.7,0.7,0.7
			c0.4,0,0.7-0.2,0.9-0.5v-2.5h0.8v3.6H97.8z"/>
		<path d="M99.7,78.2v-3.6h0.8v0.5c0.3-0.3,0.7-0.6,1.2-0.6v0.8c-0.1,0-0.2,0-0.2,0c-0.3,0-0.8,0.2-0.9,0.5v2.5H99.7z"/>
		<path d="M102.1,76.4c0-1.1,0.8-1.9,1.9-1.9c0.7,0,1.1,0.3,1.4,0.6l-0.5,0.5c-0.2-0.3-0.5-0.4-0.8-0.4c-0.7,0-1.1,0.5-1.1,1.2
			c0,0.7,0.4,1.2,1.1,1.2c0.4,0,0.6-0.1,0.8-0.4l0.5,0.5c-0.3,0.3-0.7,0.6-1.4,0.6C102.9,78.3,102.1,77.5,102.1,76.4z"/>
		<path d="M105.9,76.4c0-1.1,0.8-1.9,1.8-1.9c1.1,0,1.8,0.8,1.8,2v0.2h-2.8c0.1,0.5,0.5,1,1.2,1c0.4,0,0.8-0.1,1-0.4l0.4,0.5
			c-0.4,0.3-0.9,0.5-1.5,0.5C106.7,78.3,105.9,77.6,105.9,76.4z M107.7,75.2c-0.7,0-1,0.5-1,1h2C108.7,75.7,108.4,75.2,107.7,75.2z"
			/>
		<path d="M110,77.8l0.4-0.6c0.3,0.3,0.8,0.5,1.2,0.5c0.5,0,0.7-0.2,0.7-0.5c0-0.7-2.2-0.2-2.2-1.6c0-0.6,0.5-1.1,1.4-1.1
			c0.6,0,1.1,0.2,1.4,0.5l-0.3,0.6c-0.2-0.2-0.6-0.4-1.1-0.4c-0.4,0-0.7,0.2-0.7,0.4c0,0.6,2.2,0.2,2.2,1.6c0,0.6-0.5,1.1-1.5,1.1
			C110.9,78.3,110.4,78.1,110,77.8z"/>
		<path d="M115.2,76.4c0-1,0.7-1.9,1.9-1.9c1.2,0,1.9,0.9,1.9,1.9c0,1-0.7,1.9-1.9,1.9C116,78.3,115.2,77.5,115.2,76.4z M118.2,76.4
			c0-0.6-0.4-1.2-1.1-1.2c-0.7,0-1,0.6-1,1.2c0,0.6,0.4,1.2,1,1.2C117.8,77.6,118.2,77.1,118.2,76.4z"/>
		<path d="M120,78.2v-2.9h-0.6v-0.7h0.6v-0.2c0-0.8,0.5-1.3,1.1-1.3c0.3,0,0.6,0.1,0.9,0.3l-0.3,0.5c-0.1-0.1-0.2-0.2-0.4-0.2
			c-0.3,0-0.5,0.2-0.5,0.6v0.2h0.7v0.7h-0.7v2.9H120z"/>
		<path d="M123.7,78.2v-3.6h0.8v0.5c0.3-0.3,0.7-0.6,1.2-0.6v0.8c-0.1,0-0.2,0-0.2,0c-0.3,0-0.8,0.2-0.9,0.5v2.5H123.7z"/>
		<path d="M126.1,76.4c0-1.1,0.8-1.9,1.8-1.9c1.1,0,1.8,0.8,1.8,2v0.2H127c0.1,0.5,0.5,1,1.2,1c0.4,0,0.8-0.1,1-0.4l0.4,0.5
			c-0.4,0.3-0.9,0.5-1.5,0.5C127,78.3,126.1,77.6,126.1,76.4z M128,75.2c-0.7,0-1,0.5-1,1h2C129,75.7,128.7,75.2,128,75.2z"/>
		<path d="M131.5,78.2l-1.5-3.6h0.8l1.1,2.7l1.1-2.7h0.8l-1.5,3.6H131.5z"/>
		<path d="M134.2,76.4c0-1.1,0.8-1.9,1.8-1.9c1.1,0,1.8,0.8,1.8,2v0.2H135c0.1,0.5,0.5,1,1.2,1c0.4,0,0.8-0.1,1-0.4l0.4,0.5
			c-0.4,0.3-0.9,0.5-1.5,0.5C135,78.3,134.2,77.6,134.2,76.4z M136,75.2c-0.7,0-1,0.5-1,1h2C137,75.7,136.7,75.2,136,75.2z"/>
		<path d="M141.1,78.2V76c0-0.6-0.3-0.8-0.7-0.8c-0.4,0-0.8,0.2-0.9,0.5v2.5h-0.8v-3.6h0.8v0.5c0.2-0.3,0.7-0.6,1.3-0.6
			c0.8,0,1.2,0.4,1.2,1.2v2.6H141.1z"/>
		<path d="M145.3,78.2v-0.5c-0.3,0.3-0.7,0.6-1.3,0.6c-0.8,0-1.2-0.4-1.2-1.1v-2.6h0.8v2.3c0,0.6,0.3,0.7,0.7,0.7
			c0.4,0,0.7-0.2,0.9-0.5v-2.5h0.8v3.6H145.3z"/>
		<path d="M147,76.4c0-1.1,0.8-1.9,1.8-1.9c1.1,0,1.8,0.8,1.8,2v0.2h-2.8c0.1,0.5,0.5,1,1.2,1c0.4,0,0.8-0.1,1-0.4l0.4,0.5
			c-0.4,0.3-0.9,0.5-1.5,0.5C147.8,78.3,147,77.6,147,76.4z M148.8,75.2c-0.7,0-1,0.5-1,1h2C149.8,75.7,149.5,75.2,148.8,75.2z"/>
		<path d="M155.2,78.2v-0.4c-0.3,0.3-0.7,0.5-1.2,0.5c-0.6,0-1.3-0.4-1.3-1.2c0-0.8,0.7-1.2,1.3-1.2c0.5,0,0.9,0.2,1.2,0.5v-0.5
			c0-0.4-0.3-0.7-0.8-0.7c-0.4,0-0.8,0.1-1.1,0.5l-0.3-0.5c0.4-0.4,0.9-0.6,1.5-0.6c0.8,0,1.5,0.3,1.5,1.3v2.4H155.2z M155.2,77.4
			v-0.5c-0.2-0.2-0.5-0.4-0.9-0.4c-0.4,0-0.8,0.3-0.8,0.7c0,0.4,0.3,0.6,0.8,0.6C154.7,77.8,155,77.6,155.2,77.4z"/>
		<path d="M157.2,77.4v-2.1h-0.6v-0.7h0.6v-1h0.8v1h0.7v0.7H158v1.9c0,0.2,0.1,0.4,0.3,0.4c0.2,0,0.3-0.1,0.4-0.1l0.2,0.6
			c-0.1,0.1-0.4,0.2-0.7,0.2C157.5,78.3,157.2,78,157.2,77.4z"/>
		<path d="M161.2,77.4v-2.1h-0.6v-0.7h0.6v-1h0.8v1h0.7v0.7H162v1.9c0,0.2,0.1,0.4,0.3,0.4c0.1,0,0.3-0.1,0.4-0.1l0.2,0.6
			c-0.1,0.1-0.4,0.2-0.7,0.2C161.5,78.3,161.2,78,161.2,77.4z"/>
		<path d="M165.9,78.2v-2.3c0-0.6-0.3-0.7-0.7-0.7c-0.4,0-0.7,0.2-0.9,0.5v2.5h-0.8v-5h0.8v1.9c0.2-0.3,0.7-0.6,1.3-0.6
			c0.8,0,1.2,0.4,1.2,1.1v2.6H165.9z"/>
		<path d="M167.6,76.4c0-1.1,0.8-1.9,1.8-1.9c1.1,0,1.8,0.8,1.8,2v0.2h-2.8c0.1,0.5,0.5,1,1.2,1c0.4,0,0.8-0.1,1-0.4l0.4,0.5
			c-0.4,0.3-0.9,0.5-1.5,0.5C168.4,78.3,167.6,77.6,167.6,76.4z M169.4,75.2c-0.7,0-1,0.5-1,1h2C170.4,75.7,170.1,75.2,169.4,75.2z"
			/>
	</g>
	<g>
		<path d="M174.4,78.2l0.9-4.2h-1.5l0.2-0.8h3.9l-0.2,0.8h-1.5l-0.9,4.2H174.4z"/>
		<path d="M177.5,78.2l0.8-3.6h0.8l-0.8,3.6H177.5z M178.4,73.7c0-0.4,0.3-0.6,0.5-0.6c0.3,0,0.4,0.2,0.4,0.4c0,0.4-0.3,0.6-0.5,0.6
			C178.6,74.2,178.4,74,178.4,73.7z"/>
		<path d="M183.8,78.2l0.5-2.3c0,0,0-0.1,0-0.2c0-0.3-0.3-0.5-0.6-0.5c-0.3,0-0.6,0.2-0.9,0.5l-0.6,2.5h-0.8l0.5-2.3
			c0-0.1,0-0.1,0-0.3c0-0.2-0.2-0.4-0.6-0.4c-0.3,0-0.6,0.2-0.8,0.5l-0.6,2.5h-0.8l0.8-3.6h0.8l-0.1,0.5c0.2-0.2,0.6-0.6,1.1-0.6
			c0.7,0,1,0.5,1,0.6c0,0,0,0,0,0c0.3-0.4,0.7-0.7,1.3-0.7c0.5,0,1,0.3,1,0.9c0,0.1,0,0.2,0,0.3l-0.6,2.5H183.8z"/>
		<path d="M185.8,76.7c0-1.2,0.9-2.2,2.1-2.2c0.9,0,1.6,0.6,1.6,1.6c0,0.2,0,0.4-0.1,0.6h-2.8c0,0,0,0.1,0,0.1
			c0,0.4,0.4,0.9,1.1,0.9c0.3,0,0.7-0.1,1-0.3l0.2,0.5c-0.3,0.2-0.8,0.4-1.3,0.4C186.5,78.3,185.8,77.7,185.8,76.7z M188.8,76.1
			c0,0,0-0.1,0-0.1c0-0.5-0.3-0.9-1-0.9c-0.6,0-1,0.5-1.1,1H188.8z"/>
		<path d="M189.7,77.7l0.5-0.5c0.2,0.3,0.7,0.6,1.2,0.6c0.4,0,0.7-0.2,0.7-0.5c0-0.6-1.9-0.5-1.9-1.5c0-0.6,0.5-1.2,1.4-1.2
			c0.6,0,1.2,0.2,1.5,0.6l-0.4,0.5c-0.2-0.2-0.6-0.5-1.1-0.5c-0.4,0-0.6,0.2-0.6,0.4c0,0.5,1.9,0.4,1.9,1.5c0,0.7-0.6,1.2-1.5,1.2
			C190.7,78.3,190.1,78.1,189.7,77.7z"/>
	</g>
	<g>
		<path d="M197.9,78.2v-2.3c0-0.6-0.3-0.7-0.7-0.7c-0.4,0-0.7,0.2-0.9,0.5v2.5h-0.8v-5h0.8v1.9c0.2-0.3,0.7-0.6,1.3-0.6
			c0.8,0,1.2,0.4,1.2,1.1v2.6H197.9z"/>
		<path d="M202,78.2v-0.4c-0.3,0.3-0.7,0.5-1.2,0.5c-0.6,0-1.3-0.4-1.3-1.2c0-0.8,0.7-1.2,1.3-1.2c0.5,0,0.9,0.2,1.2,0.5v-0.5
			c0-0.4-0.3-0.7-0.8-0.7c-0.4,0-0.8,0.1-1.1,0.5l-0.3-0.5c0.4-0.4,0.9-0.6,1.5-0.6c0.8,0,1.5,0.3,1.5,1.3v2.4H202z M202,77.4v-0.5
			c-0.2-0.2-0.5-0.4-0.9-0.4c-0.4,0-0.8,0.3-0.8,0.7c0,0.4,0.3,0.6,0.8,0.6C201.5,77.8,201.8,77.6,202,77.4z"/>
		<path d="M204.8,78.2l-1.5-3.6h0.8l1.1,2.7l1.1-2.7h0.8l-1.5,3.6H204.8z"/>
		<path d="M207.4,76.4c0-1.1,0.8-1.9,1.8-1.9c1.1,0,1.8,0.8,1.8,2v0.2h-2.8c0.1,0.5,0.5,1,1.2,1c0.4,0,0.8-0.1,1-0.4l0.4,0.5
			c-0.4,0.3-0.9,0.5-1.5,0.5C208.2,78.3,207.4,77.6,207.4,76.4z M209.2,75.2c-0.7,0-1,0.5-1,1h2C210.2,75.7,209.9,75.2,209.2,75.2z"
			/>
		<path d="M213.1,77.8l0.4-0.6c0.3,0.3,0.8,0.5,1.2,0.5c0.5,0,0.7-0.2,0.7-0.5c0-0.7-2.2-0.2-2.2-1.6c0-0.6,0.5-1.1,1.4-1.1
			c0.6,0,1.1,0.2,1.4,0.5l-0.3,0.6c-0.2-0.2-0.6-0.4-1.1-0.4c-0.4,0-0.7,0.2-0.7,0.4c0,0.6,2.2,0.2,2.2,1.6c0,0.6-0.5,1.1-1.5,1.1
			C214,78.3,213.5,78.1,213.1,77.8z"/>
		<path d="M219.5,78.2v-2.3c0-0.6-0.3-0.7-0.7-0.7c-0.4,0-0.7,0.2-0.9,0.5v2.5H217v-5h0.8v1.9c0.2-0.3,0.7-0.6,1.3-0.6
			c0.8,0,1.2,0.4,1.2,1.1v2.6H219.5z"/>
		<path d="M221.2,73.7c0-0.3,0.2-0.5,0.5-0.5c0.3,0,0.5,0.2,0.5,0.5c0,0.3-0.2,0.5-0.5,0.5C221.4,74.2,221.2,73.9,221.2,73.7z
			 M221.3,78.2v-3.6h0.8v3.6H221.3z"/>
		<path d="M223.3,78.2v-2.9h-0.6v-0.7h0.6v-0.2c0-0.8,0.5-1.3,1.1-1.3c0.3,0,0.6,0.1,0.9,0.3l-0.3,0.5c-0.1-0.1-0.2-0.2-0.4-0.2
			c-0.3,0-0.5,0.2-0.5,0.6v0.2h0.7v0.7h-0.7v2.9H223.3z"/>
		<path d="M225.6,77.4v-2.1H225v-0.7h0.6v-1h0.8v1h0.7v0.7h-0.7v1.9c0,0.2,0.1,0.4,0.3,0.4c0.1,0,0.3-0.1,0.4-0.1l0.2,0.6
			c-0.1,0.1-0.4,0.2-0.7,0.2C226,78.3,225.6,78,225.6,77.4z"/>
		<path d="M227.7,76.4c0-1.1,0.8-1.9,1.8-1.9c1.1,0,1.8,0.8,1.8,2v0.2h-2.8c0.1,0.5,0.5,1,1.2,1c0.4,0,0.8-0.1,1-0.4l0.4,0.5
			c-0.4,0.3-0.9,0.5-1.5,0.5C228.5,78.3,227.7,77.6,227.7,76.4z M229.5,75.2c-0.7,0-1,0.5-1,1h2C230.5,75.7,230.2,75.2,229.5,75.2z"
			/>
		<path d="M234.7,78.2v-0.5c-0.3,0.4-0.7,0.6-1.2,0.6c-0.9,0-1.6-0.7-1.6-1.9c0-1.2,0.7-1.9,1.6-1.9c0.5,0,0.9,0.2,1.2,0.6v-1.9h0.8
			v5H234.7z M234.7,77.1v-1.4c-0.2-0.3-0.6-0.5-0.9-0.5c-0.6,0-1,0.5-1,1.2c0,0.7,0.4,1.2,1,1.2C234.1,77.6,234.5,77.4,234.7,77.1z"
			/>
		<path d="M240.7,78.2v-0.5c-0.3,0.4-0.7,0.6-1.2,0.6c-0.9,0-1.6-0.7-1.6-1.9c0-1.2,0.7-1.9,1.6-1.9c0.5,0,0.9,0.2,1.2,0.6v-1.9h0.8
			v5H240.7z M240.7,77.1v-1.4c-0.2-0.3-0.6-0.5-0.9-0.5c-0.6,0-1,0.5-1,1.2c0,0.7,0.4,1.2,1,1.2C240.1,77.6,240.5,77.4,240.7,77.1z"
			/>
		<path d="M242.5,78.2v-3.6h0.8v0.5c0.3-0.3,0.7-0.6,1.2-0.6v0.8c-0.1,0-0.2,0-0.2,0c-0.3,0-0.8,0.2-0.9,0.5v2.5H242.5z"/>
		<path d="M247.3,78.2v-0.4c-0.3,0.3-0.7,0.5-1.2,0.5c-0.6,0-1.3-0.4-1.3-1.2c0-0.8,0.7-1.2,1.3-1.2c0.5,0,0.9,0.2,1.2,0.5v-0.5
			c0-0.4-0.3-0.7-0.8-0.7c-0.4,0-0.8,0.1-1.1,0.5l-0.3-0.5c0.4-0.4,0.9-0.6,1.5-0.6c0.8,0,1.5,0.3,1.5,1.3v2.4H247.3z M247.3,77.4
			v-0.5c-0.2-0.2-0.5-0.4-0.9-0.4c-0.4,0-0.8,0.3-0.8,0.7c0,0.4,0.3,0.6,0.8,0.6C246.8,77.8,247.2,77.6,247.3,77.4z"/>
		<path d="M253.6,78.2v-2.4c0-0.4-0.2-0.7-0.6-0.7c-0.4,0-0.7,0.2-0.8,0.5v2.5h-0.8v-2.4c0-0.4-0.2-0.7-0.6-0.7
			c-0.3,0-0.7,0.2-0.8,0.5v2.5h-0.8v-3.6h0.8v0.5c0.2-0.2,0.6-0.6,1.2-0.6c0.5,0,0.9,0.3,1,0.7c0.2-0.3,0.7-0.7,1.2-0.7
			c0.7,0,1,0.4,1,1.1v2.6H253.6z"/>
		<path d="M257.7,78.2v-0.4c-0.3,0.3-0.7,0.5-1.2,0.5c-0.6,0-1.3-0.4-1.3-1.2c0-0.8,0.7-1.2,1.3-1.2c0.5,0,0.9,0.2,1.2,0.5v-0.5
			c0-0.4-0.3-0.7-0.8-0.7c-0.4,0-0.8,0.1-1.1,0.5l-0.3-0.5c0.4-0.4,0.9-0.6,1.5-0.6c0.8,0,1.5,0.3,1.5,1.3v2.4H257.7z M257.7,77.4
			v-0.5c-0.2-0.2-0.5-0.4-0.9-0.4c-0.4,0-0.8,0.3-0.8,0.7c0,0.4,0.3,0.6,0.8,0.6C257.2,77.8,257.5,77.6,257.7,77.4z"/>
		<path d="M259.7,77.4v-2.1h-0.6v-0.7h0.6v-1h0.8v1h0.7v0.7h-0.7v1.9c0,0.2,0.1,0.4,0.3,0.4c0.2,0,0.3-0.1,0.4-0.1l0.2,0.6
			c-0.1,0.1-0.4,0.2-0.7,0.2C260,78.3,259.7,78,259.7,77.4z"/>
		<path d="M261.8,73.7c0-0.3,0.2-0.5,0.5-0.5c0.3,0,0.5,0.2,0.5,0.5c0,0.3-0.2,0.5-0.5,0.5C262.1,74.2,261.8,73.9,261.8,73.7z
			 M261.9,78.2v-3.6h0.8v3.6H261.9z"/>
		<path d="M263.6,76.4c0-1.1,0.8-1.9,1.9-1.9c0.7,0,1.1,0.3,1.4,0.6l-0.5,0.5c-0.2-0.3-0.5-0.4-0.8-0.4c-0.7,0-1.1,0.5-1.1,1.2
			c0,0.7,0.4,1.2,1.1,1.2c0.4,0,0.6-0.1,0.8-0.4l0.5,0.5c-0.3,0.3-0.7,0.6-1.4,0.6C264.3,78.3,263.6,77.5,263.6,76.4z"/>
		<path d="M269.8,78.2v-0.4c-0.3,0.3-0.7,0.5-1.2,0.5c-0.6,0-1.3-0.4-1.3-1.2c0-0.8,0.7-1.2,1.3-1.2c0.5,0,0.9,0.2,1.2,0.5v-0.5
			c0-0.4-0.3-0.7-0.8-0.7c-0.4,0-0.8,0.1-1.1,0.5l-0.3-0.5c0.4-0.4,0.9-0.6,1.5-0.6c0.8,0,1.5,0.3,1.5,1.3v2.4H269.8z M269.8,77.4
			v-0.5c-0.2-0.2-0.5-0.4-0.9-0.4c-0.4,0-0.8,0.3-0.8,0.7c0,0.4,0.3,0.6,0.8,0.6C269.2,77.8,269.6,77.6,269.8,77.4z"/>
		<path d="M271.6,78.2v-5h0.8v5H271.6z"/>
		<path d="M273.4,78.2v-5h0.8v5H273.4z"/>
		<path d="M275.2,78.9c0.1,0,0.2,0.1,0.3,0.1c0.2,0,0.4-0.1,0.5-0.3l0.2-0.4l-1.5-3.7h0.8l1.1,2.7l1.1-2.7h0.8l-1.7,4.3
			c-0.2,0.6-0.7,0.8-1.2,0.8c-0.1,0-0.3,0-0.4-0.1L275.2,78.9z"/>
		<path d="M280.6,73.7c0-0.3,0.2-0.5,0.5-0.5c0.3,0,0.5,0.2,0.5,0.5c0,0.3-0.2,0.5-0.5,0.5C280.8,74.2,280.6,73.9,280.6,73.7z
			 M280.7,78.2v-3.6h0.8v3.6H280.7z"/>
		<path d="M285,78.2V76c0-0.6-0.3-0.8-0.7-0.8c-0.4,0-0.8,0.2-0.9,0.5v2.5h-0.8v-3.6h0.8v0.5c0.2-0.3,0.7-0.6,1.3-0.6
			c0.8,0,1.2,0.4,1.2,1.2v2.6H285z"/>
		<path d="M288.6,77.4v-2.1H288v-0.7h0.6v-1h0.8v1h0.7v0.7h-0.7v1.9c0,0.2,0.1,0.4,0.3,0.4c0.1,0,0.3-0.1,0.4-0.1l0.2,0.6
			c-0.1,0.1-0.4,0.2-0.7,0.2C288.9,78.3,288.6,78,288.6,77.4z"/>
		<path d="M293.3,78.2v-2.3c0-0.6-0.3-0.7-0.7-0.7c-0.4,0-0.7,0.2-0.9,0.5v2.5h-0.8v-5h0.8v1.9c0.2-0.3,0.7-0.6,1.3-0.6
			c0.8,0,1.2,0.4,1.2,1.1v2.6H293.3z"/>
		<path d="M294.9,76.4c0-1.1,0.8-1.9,1.8-1.9c1.1,0,1.8,0.8,1.8,2v0.2h-2.8c0.1,0.5,0.5,1,1.2,1c0.4,0,0.8-0.1,1-0.4l0.4,0.5
			c-0.4,0.3-0.9,0.5-1.5,0.5C295.7,78.3,294.9,77.6,294.9,76.4z M296.7,75.2c-0.7,0-1,0.5-1,1h2C297.7,75.7,297.5,75.2,296.7,75.2z"
			/>
		<path d="M300.8,78.2v-0.7c1.9-1.5,2.7-2.1,2.7-2.8c0-0.5-0.5-0.8-0.9-0.8c-0.6,0-1,0.2-1.4,0.6l-0.5-0.6c0.4-0.5,1.1-0.8,1.8-0.8
			c1,0,1.8,0.5,1.8,1.5c0,0.9-0.8,1.7-2.2,2.8h2.2v0.8H300.8z"/>
		<path d="M306.4,78.2v-3.9l-0.8,0.8l-0.5-0.5l1.4-1.5h0.8v5H306.4z"/>
		<path d="M308,77.8l0.4-0.6c0.3,0.3,0.8,0.5,1.2,0.5s0.7-0.2,0.7-0.5c0-0.7-2.2-0.2-2.2-1.6c0-0.6,0.5-1.1,1.4-1.1
			c0.6,0,1.1,0.2,1.4,0.5l-0.3,0.6c-0.2-0.2-0.6-0.4-1.1-0.4c-0.4,0-0.7,0.2-0.7,0.4c0,0.6,2.2,0.2,2.2,1.6c0,0.6-0.5,1.1-1.5,1.1
			C308.9,78.3,308.4,78.1,308,77.8z"/>
		<path d="M312.1,77.4v-2.1h-0.6v-0.7h0.6v-1h0.8v1h0.7v0.7h-0.7v1.9c0,0.2,0.1,0.4,0.3,0.4c0.2,0,0.3-0.1,0.4-0.1l0.2,0.6
			c-0.1,0.1-0.4,0.2-0.7,0.2C312.4,78.3,312.1,78,312.1,77.4z"/>
		<path d="M315.7,76.4c0-1.1,0.8-1.9,1.9-1.9c0.7,0,1.1,0.3,1.4,0.6l-0.5,0.5c-0.2-0.3-0.5-0.4-0.8-0.4c-0.7,0-1.1,0.5-1.1,1.2
			c0,0.7,0.4,1.2,1.1,1.2c0.4,0,0.6-0.1,0.8-0.4l0.5,0.5c-0.3,0.3-0.7,0.6-1.4,0.6C316.5,78.3,315.7,77.5,315.7,76.4z"/>
		<path d="M319.4,76.4c0-1.1,0.8-1.9,1.8-1.9c1.1,0,1.8,0.8,1.8,2v0.2h-2.8c0.1,0.5,0.5,1,1.2,1c0.4,0,0.8-0.1,1-0.4l0.4,0.5
			c-0.4,0.3-0.9,0.5-1.5,0.5C320.3,78.3,319.4,77.6,319.4,76.4z M321.3,75.2c-0.7,0-1,0.5-1,1h2C322.3,75.7,322,75.2,321.3,75.2z"/>
		<path d="M326.3,78.2V76c0-0.6-0.3-0.8-0.7-0.8c-0.4,0-0.8,0.2-0.9,0.5v2.5h-0.8v-3.6h0.8v0.5c0.2-0.3,0.7-0.6,1.3-0.6
			c0.8,0,1.2,0.4,1.2,1.2v2.6H326.3z"/>
		<path d="M328.3,77.4v-2.1h-0.6v-0.7h0.6v-1h0.8v1h0.7v0.7h-0.7v1.9c0,0.2,0.1,0.4,0.3,0.4c0.2,0,0.3-0.1,0.4-0.1l0.2,0.6
			c-0.1,0.1-0.4,0.2-0.7,0.2C328.7,78.3,328.3,78,328.3,77.4z"/>
		<path d="M333.1,78.2v-0.5c-0.3,0.3-0.7,0.6-1.3,0.6c-0.8,0-1.2-0.4-1.2-1.1v-2.6h0.8v2.3c0,0.6,0.3,0.7,0.7,0.7
			c0.4,0,0.7-0.2,0.9-0.5v-2.5h0.8v3.6H333.1z"/>
		<path d="M334.9,78.2v-3.6h0.8v0.5c0.3-0.3,0.7-0.6,1.2-0.6v0.8c-0.1,0-0.2,0-0.2,0c-0.3,0-0.8,0.2-0.9,0.5v2.5H334.9z"/>
		<path d="M337.5,78.9c0.1,0,0.2,0.1,0.3,0.1c0.2,0,0.4-0.1,0.5-0.3l0.2-0.4l-1.5-3.7h0.8l1.1,2.7l1.1-2.7h0.8l-1.7,4.3
			c-0.2,0.6-0.7,0.8-1.2,0.8c-0.1,0-0.3,0-0.4-0.1L337.5,78.9z"/>
		<path d="M340.8,77.8c0-0.3,0.2-0.5,0.5-0.5s0.5,0.2,0.5,0.5c0,0.3-0.2,0.5-0.5,0.5S340.8,78.1,340.8,77.8z"/>
	</g>
	<g>
		<path d="M62.6,122.2h-0.7c-1.3-1.8-1.8-2.3-2.3-2.3c-0.4,0-0.6,0.3-0.6,0.7c0,0.5,0.2,0.9,0.5,1.2l-0.6,0.5
			c-0.5-0.4-0.7-1.1-0.7-1.7c0-0.9,0.5-1.7,1.4-1.7c0.7,0,1.4,0.6,2.2,1.7V119h0.8V122.2z"/>
		<path d="M60.4,118.4c-1.1,0-2.2-0.6-2.2-1.8c0-1.2,1.1-1.8,2.2-1.8c1.1,0,2.2,0.6,2.2,1.8C62.7,117.8,61.5,118.4,60.4,118.4z
			 M60.4,115.8c-0.8,0-1.4,0.2-1.4,0.9c0,0.6,0.6,0.9,1.4,0.9c0.8,0,1.4-0.2,1.4-0.9C61.8,116,61.2,115.8,60.4,115.8z"/>
		<path d="M60.4,114.3c-1.1,0-2.2-0.6-2.2-1.8c0-1.2,1.1-1.8,2.2-1.8c1.1,0,2.2,0.6,2.2,1.8C62.7,113.8,61.5,114.3,60.4,114.3z
			 M60.4,111.7c-0.8,0-1.4,0.2-1.4,0.9c0,0.6,0.6,0.9,1.4,0.9c0.8,0,1.4-0.2,1.4-0.9C61.8,111.9,61.2,111.7,60.4,111.7z"/>
		<path d="M60.4,110.3c-1.1,0-2.2-0.6-2.2-1.8c0-1.2,1.1-1.8,2.2-1.8c1.1,0,2.2,0.6,2.2,1.8C62.7,109.7,61.5,110.3,60.4,110.3z
			 M60.4,107.6c-0.8,0-1.4,0.2-1.4,0.9c0,0.6,0.6,0.9,1.4,0.9c0.8,0,1.4-0.2,1.4-0.9C61.8,107.9,61.2,107.6,60.4,107.6z"/>
	</g>
	<g>
		<path d="M62.6,161.3h-0.7c-1.3-1.8-1.8-2.3-2.3-2.3c-0.4,0-0.6,0.3-0.6,0.7c0,0.5,0.2,0.9,0.5,1.2l-0.6,0.5
			c-0.5-0.4-0.7-1.1-0.7-1.7c0-0.9,0.5-1.7,1.4-1.7c0.7,0,1.4,0.6,2.2,1.7v-1.8h0.8V161.3z"/>
		<path d="M60.4,157.5c-1.1,0-2.2-0.6-2.2-1.8c0-1.2,1.1-1.8,2.2-1.8c1.1,0,2.2,0.6,2.2,1.8C62.7,156.9,61.5,157.5,60.4,157.5z
			 M60.4,154.8c-0.8,0-1.4,0.2-1.4,0.9c0,0.6,0.6,0.9,1.4,0.9c0.8,0,1.4-0.2,1.4-0.9C61.8,155.1,61.2,154.8,60.4,154.8z"/>
		<path d="M60.4,153.4c-1.1,0-2.2-0.6-2.2-1.8c0-1.2,1.1-1.8,2.2-1.8c1.1,0,2.2,0.6,2.2,1.8C62.7,152.9,61.5,153.4,60.4,153.4z
			 M60.4,150.8c-0.8,0-1.4,0.2-1.4,0.9c0,0.6,0.6,0.9,1.4,0.9c0.8,0,1.4-0.2,1.4-0.9C61.8,151,61.2,150.8,60.4,150.8z"/>
		<path d="M62,149.3l-0.6-0.5c0.3-0.3,0.5-0.7,0.5-1.2c0-0.5-0.3-0.8-0.6-0.8c-0.4,0-0.6,0.3-0.6,0.8c0,0.4,0.1,0.7,0.4,0.9
			l-0.2,0.6h-2.5v-3h0.8v2.1h1.1c-0.2-0.2-0.4-0.6-0.4-1c0-0.7,0.5-1.4,1.4-1.4c0.9,0,1.5,0.7,1.5,1.7
			C62.7,148.4,62.4,148.9,62,149.3z"/>
	</g>
	<g>
		<path d="M62.6,200.6h-0.7c-1.3-1.8-1.8-2.3-2.3-2.3c-0.4,0-0.6,0.3-0.6,0.7c0,0.5,0.2,0.9,0.5,1.2l-0.6,0.5
			c-0.5-0.4-0.7-1.1-0.7-1.7c0-0.9,0.5-1.7,1.4-1.7c0.7,0,1.4,0.6,2.2,1.7v-1.8h0.8V200.6z"/>
		<path d="M60.4,196.7c-1.1,0-2.2-0.6-2.2-1.8c0-1.2,1.1-1.8,2.2-1.8c1.1,0,2.2,0.6,2.2,1.8C62.7,196.2,61.5,196.7,60.4,196.7z
			 M60.4,194.1c-0.8,0-1.4,0.2-1.4,0.9c0,0.6,0.6,0.9,1.4,0.9c0.8,0,1.4-0.2,1.4-0.9C61.8,194.3,61.2,194.1,60.4,194.1z"/>
		<path d="M62.6,191.6h-3.1l0.7,0.7l-0.6,0.5l-1.4-1.4v-0.8h4.3V191.6z"/>
		<path d="M60.4,190c-1.1,0-2.2-0.6-2.2-1.8c0-1.2,1.1-1.8,2.2-1.8c1.1,0,2.2,0.6,2.2,1.8C62.7,189.4,61.5,190,60.4,190z
			 M60.4,187.3c-0.8,0-1.4,0.2-1.4,0.9c0,0.6,0.6,0.9,1.4,0.9c0.8,0,1.4-0.2,1.4-0.9C61.8,187.6,61.2,187.3,60.4,187.3z"/>
	</g>
	<g>
		<path d="M62.6,239.3h-0.7c-1.3-1.8-1.8-2.3-2.3-2.3c-0.4,0-0.6,0.3-0.6,0.7c0,0.5,0.2,0.9,0.5,1.2l-0.6,0.5
			c-0.5-0.4-0.7-1.1-0.7-1.7c0-0.9,0.5-1.7,1.4-1.7c0.7,0,1.4,0.6,2.2,1.7V236h0.8V239.3z"/>
		<path d="M60.4,235.4c-1.1,0-2.2-0.6-2.2-1.8c0-1.2,1.1-1.8,2.2-1.8c1.1,0,2.2,0.6,2.2,1.8C62.7,234.9,61.5,235.4,60.4,235.4z
			 M60.4,232.8c-0.8,0-1.4,0.2-1.4,0.9c0,0.6,0.6,0.9,1.4,0.9c0.8,0,1.4-0.2,1.4-0.9C61.8,233,61.2,232.8,60.4,232.8z"/>
		<path d="M62.6,230.3h-3.1l0.7,0.7l-0.6,0.5l-1.4-1.4v-0.8h4.3V230.3z"/>
		<path d="M62,228.6l-0.6-0.5c0.3-0.3,0.5-0.7,0.5-1.2c0-0.5-0.3-0.8-0.6-0.8c-0.4,0-0.6,0.3-0.6,0.8c0,0.4,0.1,0.7,0.4,0.9
			l-0.2,0.6h-2.5v-3h0.8v2.1h1.1c-0.2-0.2-0.4-0.6-0.4-1c0-0.7,0.5-1.4,1.4-1.4c0.9,0,1.5,0.7,1.5,1.7
			C62.7,227.7,62.4,228.2,62,228.6z"/>
	</g>
	<rect x="336.8" y="101" class="st0" width="17" height="27"/>
	<rect x="270.4" y="101" class="st1" width="66.3" height="27"/>
	<rect x="70.7" y="101" width="199.7" height="27"/>
	<g>
		<defs>
			<rect id="SVGID_3_" x="266.2" y="101" width="4.2" height="27"/>
		</defs>
		<clipPath id="SVGID_4_">
			<use xlink:href="#SVGID_3_"  style="overflow:visible;"/>
		</clipPath>
		<path class="st2" d="M304.2,135.4l-35.2-35.2l0.5-0.5l35.2,35.2L304.2,135.4z M298.3,135.4l-35.2-35.2l0.5-0.5l35.2,35.2
			L298.3,135.4z M295.3,135.4l-35.2-35.2l0.5-0.5l35.2,35.2L295.3,135.4z M289.3,135.4l-35.2-35.2l0.5-0.5l35.2,35.2L289.3,135.4z
			 M286.3,135.4l-35.2-35.2l0.5-0.5l35.2,35.2L286.3,135.4z M277.4,135.4l-35.2-35.2l0.5-0.5l35.2,35.2L277.4,135.4z M271.4,135.4
			l-35.2-35.2l0.5-0.5l35.2,35.2L271.4,135.4z M265.4,135.4l-35.2-35.2l0.5-0.5l35.2,35.2L265.4,135.4z M301.3,135.4l-35.2-35.2
			l0.5-0.5l35.2,35.2L301.3,135.4z M292.3,135.4l-35.2-35.2l0.5-0.5l35.2,35.2L292.3,135.4z M283.3,135.4l-35.2-35.2l0.5-0.5
			l35.2,35.2L283.3,135.4z M280.4,135.4l-35.2-35.2l0.5-0.5l35.2,35.2L280.4,135.4z M274.4,135.4l-35.2-35.2l0.5-0.5l35.2,35.2
			L274.4,135.4z M268.4,135.4l-35.2-35.2l0.5-0.5l35.2,35.2L268.4,135.4z M262.4,135.4l-35.2-35.2l0.5-0.5l35.2,35.2L262.4,135.4z"
			/>
	</g>
	<rect x="333.9" y="140.3" class="st0" width="19.8" height="26.7"/>
	<rect x="257.5" y="140.3" class="st1" width="76.4" height="26.7"/>
	<rect x="70.7" y="140.3" width="186.8" height="26.7"/>
	<rect x="333.9" y="179.5" class="st0" width="19.8" height="28"/>
	<rect x="223.5" y="179.5" class="st1" width="110.4" height="28"/>
	<rect x="70.7" y="179.5" width="152.9" height="28"/>
	<g>
		<defs>
			<rect id="SVGID_5_" x="196" y="179.5" width="27.5" height="27.9"/>
		</defs>
		<clipPath id="SVGID_6_">
			<use xlink:href="#SVGID_5_"  style="overflow:visible;"/>
		</clipPath>
		<path class="st3" d="M257.4,213.9l-35.2-35.2l0.5-0.5l35.2,35.2L257.4,213.9z M254.5,213.9l-35.2-35.2l0.5-0.5l35.2,35.2
			L254.5,213.9z M251.5,213.9l-35.2-35.2l0.5-0.5l35.2,35.2L251.5,213.9z M248.5,213.9l-35.2-35.2l0.5-0.5l35.2,35.2L248.5,213.9z
			 M245.5,213.9l-35.2-35.2l0.5-0.5l35.2,35.2L245.5,213.9z M242.5,213.9l-35.2-35.2l0.5-0.5l35.2,35.2L242.5,213.9z M239.5,213.9
			l-35.2-35.2l0.5-0.5l35.2,35.2L239.5,213.9z M236.5,213.9l-35.2-35.2l0.5-0.5l35.2,35.2L236.5,213.9z M233.6,213.9l-35.2-35.2
			l0.5-0.5l35.2,35.2L233.6,213.9z M230.6,213.9l-35.2-35.2l0.5-0.5l35.2,35.2L230.6,213.9z M227.6,213.9l-35.2-35.2l0.5-0.5
			l35.2,35.2L227.6,213.9z M224.6,213.9l-35.2-35.2l0.5-0.5l35.2,35.2L224.6,213.9z M221.6,213.9l-35.2-35.2l0.5-0.5l35.2,35.2
			L221.6,213.9z M218.6,213.9l-35.2-35.2l0.5-0.5l35.2,35.2L218.6,213.9z M215.6,213.9l-35.2-35.2l0.5-0.5l35.2,35.2L215.6,213.9z
			 M212.7,213.9l-35.2-35.2l0.5-0.5l35.2,35.2L212.7,213.9z M209.7,213.9l-35.2-35.2l0.5-0.5l35.2,35.2L209.7,213.9z M206.7,213.9
			l-35.2-35.2l0.5-0.5l35.2,35.2L206.7,213.9z M203.7,213.9l-35.2-35.2l0.5-0.5l35.2,35.2L203.7,213.9z M200.7,213.9l-35.2-35.2
			l0.5-0.5l35.2,35.2L200.7,213.9z M197.7,213.9l-35.2-35.2l0.5-0.5l35.2,35.2L197.7,213.9z M194.7,213.9l-35.2-35.2l0.5-0.5
			l35.2,35.2L194.7,213.9z"/>
	</g>
	<rect x="337.5" y="218.8" class="st0" width="17" height="27"/>
	<rect x="184.7" y="218.8" class="st1" width="152.9" height="27"/>
	<rect x="71.4" y="218.8" width="113.2" height="27"/>
	<g>
		<defs>
			<rect id="SVGID_7_" x="149.6" y="218.8" width="35.1" height="27"/>
		</defs>
		<clipPath id="SVGID_8_">
			<use xlink:href="#SVGID_7_"  style="overflow:visible;"/>
		</clipPath>
		<path class="st4" d="M218.6,253.1L183.4,218l0.5-0.5l35.2,35.2L218.6,253.1z M215.6,253.1L180.4,218l0.5-0.5l35.2,35.2
			L215.6,253.1z M212.6,253.1L177.4,218l0.5-0.5l35.2,35.2L212.6,253.1z M209.6,253.1L174.4,218l0.5-0.5l35.2,35.2L209.6,253.1z
			 M206.6,253.1L171.5,218l0.5-0.5l35.2,35.2L206.6,253.1z M203.6,253.1L168.5,218l0.5-0.5l35.2,35.2L203.6,253.1z M200.7,253.1
			L165.5,218l0.5-0.5l35.2,35.2L200.7,253.1z M197.7,253.1L162.5,218l0.5-0.5l35.2,35.2L197.7,253.1z M194.7,253.1L159.5,218
			l0.5-0.5l35.2,35.2L194.7,253.1z M191.7,253.1L156.5,218l0.5-0.5l35.2,35.2L191.7,253.1z M188.7,253.1L153.5,218l0.5-0.5
			l35.2,35.2L188.7,253.1z M185.7,253.1L150.6,218l0.5-0.5l35.2,35.2L185.7,253.1z M182.7,253.1L147.6,218l0.5-0.5l35.2,35.2
			L182.7,253.1z M179.8,253.1L144.6,218l0.5-0.5l35.2,35.2L179.8,253.1z M176.8,253.1L141.6,218l0.5-0.5l35.2,35.2L176.8,253.1z
			 M173.8,253.1L138.6,218l0.5-0.5l35.2,35.2L173.8,253.1z M170.8,253.1L135.6,218l0.5-0.5l35.2,35.2L170.8,253.1z M167.8,253.1
			L132.6,218l0.5-0.5l35.2,35.2L167.8,253.1z M164.8,253.1L129.7,218l0.5-0.5l35.2,35.2L164.8,253.1z M161.8,253.1L126.7,218
			l0.5-0.5l35.2,35.2L161.8,253.1z M158.9,253.1L123.7,218l0.5-0.5l35.2,35.2L158.9,253.1z M155.9,253.1L120.7,218l0.5-0.5
			l35.2,35.2L155.9,253.1z M152.9,253.1L117.7,218l0.5-0.5l35.2,35.2L152.9,253.1z M149.9,253.1L114.7,218l0.5-0.5l35.2,35.2
			L149.9,253.1z M146.9,253.1L111.8,218l0.5-0.5l35.2,35.2L146.9,253.1z"/>
	</g>
	<g>
		<defs>
			<rect id="SVGID_9_" x="302.4" y="218.8" width="35.1" height="27"/>
		</defs>
		<clipPath id="SVGID_10_">
			<use xlink:href="#SVGID_9_"  style="overflow:visible;"/>
		</clipPath>
		<path class="st5" d="M371.4,253.1L336.3,218l0.5-0.5l35.2,35.2L371.4,253.1z M368.4,253.1L333.3,218l0.5-0.5l35.2,35.2
			L368.4,253.1z M365.4,253.1L330.3,218l0.5-0.5l35.2,35.2L365.4,253.1z M362.5,253.1L327.3,218l0.5-0.5l35.2,35.2L362.5,253.1z
			 M359.5,253.1L324.3,218l0.5-0.5l35.2,35.2L359.5,253.1z M356.5,253.1L321.3,218l0.5-0.5l35.2,35.2L356.5,253.1z M353.5,253.1
			L318.3,218l0.5-0.5l35.2,35.2L353.5,253.1z M350.5,253.1L315.4,218l0.5-0.5l35.2,35.2L350.5,253.1z M347.5,253.1L312.4,218
			l0.5-0.5l35.2,35.2L347.5,253.1z M344.6,253.1L309.4,218l0.5-0.5l35.2,35.2L344.6,253.1z M341.6,253.1L306.4,218l0.5-0.5
			l35.2,35.2L341.6,253.1z M338.6,253.1L303.4,218l0.5-0.5l35.2,35.2L338.6,253.1z M335.6,253.1L300.4,218l0.5-0.5l35.2,35.2
			L335.6,253.1z M332.6,253.1L297.4,218l0.5-0.5l35.2,35.2L332.6,253.1z M329.6,253.1L294.5,218l0.5-0.5l35.2,35.2L329.6,253.1z
			 M326.6,253.1L291.5,218l0.5-0.5l35.2,35.2L326.6,253.1z M323.7,253.1L288.5,218l0.5-0.5l35.2,35.2L323.7,253.1z M320.7,253.1
			L285.5,218l0.5-0.5l35.2,35.2L320.7,253.1z M317.7,253.1L282.5,218l0.5-0.5l35.2,35.2L317.7,253.1z M314.7,253.1L279.5,218
			l0.5-0.5l35.2,35.2L314.7,253.1z M311.7,253.1L276.5,218l0.5-0.5l35.2,35.2L311.7,253.1z M308.7,253.1L273.6,218l0.5-0.5
			l35.2,35.2L308.7,253.1z M305.7,253.1L270.6,218l0.5-0.5l35.2,35.2L305.7,253.1z M302.8,253.1L267.6,218l0.5-0.5l35.2,35.2
			L302.8,253.1z M299.8,253.1L264.6,218l0.5-0.5l35.2,35.2L299.8,253.1z"/>
	</g>
	<g>
		<path class="st0" d="M168,112.6h-2.9v-1h4.1v1.1c-1.2,0.9-2,2.1-2.2,3.8h-1.1C166.1,114.8,166.9,113.4,168,112.6z"/>
		<path class="st0" d="M174.4,112.7v2.7c0,0.7-0.5,1.1-1.1,1.1h-1.7c-0.6,0-1.1-0.4-1.1-1.1v-2.7c0-0.7,0.5-1.1,1.1-1.1h1.7
			C173.9,111.6,174.4,112,174.4,112.7z M173.3,115.2v-2.5c0-0.1-0.1-0.2-0.2-0.2h-1.4c-0.1,0-0.2,0.1-0.2,0.2v2.5
			c0,0.1,0.1,0.2,0.2,0.2h1.4C173.2,115.5,173.3,115.4,173.3,115.2z"/>
		<path class="st0" d="M176.6,111.6c0.7,0,1.3,0.6,1.3,1.3s-0.6,1.3-1.3,1.3s-1.3-0.6-1.3-1.3S175.9,111.6,176.6,111.6z
			 M176.6,113.3c0.3,0,0.4-0.2,0.4-0.4s-0.2-0.4-0.4-0.4c-0.3,0-0.4,0.2-0.4,0.4S176.3,113.3,176.6,113.3z M179.4,111.6h1l-2.7,4.9
			h-1L179.4,111.6z M180.5,114c0.7,0,1.3,0.6,1.3,1.3s-0.6,1.3-1.3,1.3s-1.3-0.6-1.3-1.3S179.7,114,180.5,114z M180.5,115.7
			c0.3,0,0.4-0.2,0.4-0.4c0-0.3-0.2-0.4-0.4-0.4s-0.4,0.2-0.4,0.4C180,115.5,180.2,115.7,180.5,115.7z"/>
	</g>
	<g>
		<path class="st0" d="M251.6,115.5h0.7v-1.9c0-0.7-0.3-1-0.7-1.1l0.7-0.9h1.1v3.9h0.7v1h-2.5V115.5z"/>
		<path class="st0" d="M256.2,111.6c0.7,0,1.3,0.6,1.3,1.3s-0.6,1.3-1.3,1.3c-0.7,0-1.3-0.6-1.3-1.3S255.4,111.6,256.2,111.6z
			 M256.2,113.3c0.3,0,0.4-0.2,0.4-0.4s-0.2-0.4-0.4-0.4c-0.3,0-0.4,0.2-0.4,0.4S255.9,113.3,256.2,113.3z M259,111.6h1l-2.7,4.9h-1
			L259,111.6z M260,114c0.7,0,1.3,0.6,1.3,1.3s-0.6,1.3-1.3,1.3c-0.7,0-1.3-0.6-1.3-1.3S259.3,114,260,114z M260,115.7
			c0.3,0,0.4-0.2,0.4-0.4c0-0.3-0.2-0.4-0.4-0.4s-0.4,0.2-0.4,0.4C259.6,115.5,259.8,115.7,260,115.7z"/>
	</g>
	<g>
		<path class="st0" d="M150.9,155.3v-2.7c0-0.7,0.5-1.1,1.1-1.1h1.8c0.6,0,1.1,0.4,1.1,1.1v0.3h-1.1v-0.2c0-0.1-0.1-0.2-0.2-0.2
			h-1.7v1h1.9c0.6,0,1.1,0.4,1.1,1.1v0.7c0,0.7-0.5,1.1-1.1,1.1h-1.9C151.5,156.4,150.9,156,150.9,155.3z M152.1,155.4h1.9v-0.9
			h-1.9V155.4z"/>
		<path class="st0" d="M156.2,155.3v-0.3h1.1v0.2c0,0.1,0.1,0.2,0.2,0.2h1.5v-1.1h-2l-0.8-0.6v-2.2h3.7v1h-2.7v0.8h1.7
			c0.6,0,1.2,0.4,1.2,1.1v0.9c0,0.7-0.5,1.1-1.1,1.1h-1.7C156.7,156.4,156.2,156,156.2,155.3z"/>
		<path class="st0" d="M162.2,151.5c0.7,0,1.3,0.6,1.3,1.3s-0.6,1.3-1.3,1.3s-1.3-0.6-1.3-1.3S161.5,151.5,162.2,151.5z
			 M162.2,153.2c0.3,0,0.4-0.2,0.4-0.4s-0.2-0.4-0.4-0.4c-0.3,0-0.4,0.2-0.4,0.4S162,153.2,162.2,153.2z M165,151.5h1l-2.7,4.9h-1
			L165,151.5z M166.1,153.9c0.7,0,1.3,0.6,1.3,1.3s-0.6,1.3-1.3,1.3s-1.3-0.6-1.3-1.3S165.4,153.9,166.1,153.9z M166.1,155.6
			c0.3,0,0.4-0.2,0.4-0.4c0-0.3-0.2-0.4-0.4-0.4s-0.4,0.2-0.4,0.4C165.6,155.4,165.8,155.6,166.1,155.6z"/>
	</g>
	<g>
		<path class="st0" d="M237.9,155.4h0.7v-1.9c0-0.7-0.3-1-0.7-1.1l0.7-0.9h1.1v3.9h0.7v1h-2.5V155.4z"/>
		<path class="st0" d="M242.4,151.5c0.7,0,1.3,0.6,1.3,1.3s-0.6,1.3-1.3,1.3s-1.3-0.6-1.3-1.3S241.7,151.5,242.4,151.5z
			 M242.4,153.2c0.3,0,0.4-0.2,0.4-0.4s-0.2-0.4-0.4-0.4c-0.3,0-0.4,0.2-0.4,0.4S242.2,153.2,242.4,153.2z M245.2,151.5h1l-2.7,4.9
			h-1L245.2,151.5z M246.3,153.9c0.7,0,1.3,0.6,1.3,1.3s-0.6,1.3-1.3,1.3s-1.3-0.6-1.3-1.3S245.6,153.9,246.3,153.9z M246.3,155.6
			c0.3,0,0.4-0.2,0.4-0.4c0-0.3-0.2-0.4-0.4-0.4s-0.4,0.2-0.4,0.4C245.9,155.4,246,155.6,246.3,155.6z"/>
	</g>
	<g>
		<path class="st0" d="M128.1,193.8h0.6v1h-0.6v0.5h0.4v1h-2.1v-1h0.5v-0.5h-2.7v-1.1l2.4-2.4h1.4V193.8z M125.6,193.8h1.5v-1.4
			L125.6,193.8z"/>
		<path class="st0" d="M133.2,193.8h0.6v1h-0.6v0.5h0.4v1h-2.1v-1h0.5v-0.5h-2.7v-1.1l2.4-2.4h1.4V193.8z M130.6,193.8h1.5v-1.4
			L130.6,193.8z"/>
		<path class="st0" d="M135.7,191.4c0.7,0,1.3,0.6,1.3,1.3s-0.6,1.3-1.3,1.3s-1.3-0.6-1.3-1.3S135,191.4,135.7,191.4z M135.7,193.1
			c0.3,0,0.4-0.2,0.4-0.4s-0.2-0.4-0.4-0.4c-0.3,0-0.4,0.2-0.4,0.4S135.4,193.1,135.7,193.1z M138.5,191.4h1l-2.7,4.9h-1
			L138.5,191.4z M139.5,193.8c0.7,0,1.3,0.6,1.3,1.3s-0.6,1.3-1.3,1.3s-1.3-0.6-1.3-1.3S138.8,193.8,139.5,193.8z M139.5,195.5
			c0.3,0,0.4-0.2,0.4-0.4c0-0.3-0.2-0.4-0.4-0.4s-0.4,0.2-0.4,0.4C139.1,195.3,139.3,195.5,139.5,195.5z"/>
	</g>
	<rect x="202.3" y="190.8" width="15.7" height="5.5"/>
	<g>
		<path class="st0" d="M202.8,195.3h0.7v-1.9c0-0.7-0.3-1-0.7-1.1l0.7-0.9h1.1v3.9h0.7v1h-2.5V195.3z"/>
		<path class="st0" d="M210.4,192.5v2.7c0,0.7-0.5,1.1-1.1,1.1h-1.7c-0.6,0-1.1-0.4-1.1-1.1v-2.7c0-0.7,0.5-1.1,1.1-1.1h1.7
			C209.9,191.4,210.4,191.7,210.4,192.5z M209.3,195v-2.5c0-0.1-0.1-0.2-0.2-0.2h-1.4c-0.1,0-0.2,0.1-0.2,0.2v2.5
			c0,0.1,0.1,0.2,0.2,0.2h1.4C209.2,195.3,209.3,195.2,209.3,195z"/>
		<path class="st0" d="M212.6,191.4c0.7,0,1.3,0.6,1.3,1.3s-0.6,1.3-1.3,1.3s-1.3-0.6-1.3-1.3S211.9,191.4,212.6,191.4z
			 M212.6,193.1c0.3,0,0.4-0.2,0.4-0.4s-0.2-0.4-0.4-0.4s-0.4,0.2-0.4,0.4S212.3,193.1,212.6,193.1z M215.4,191.4h1l-2.7,4.9h-1
			L215.4,191.4z M216.4,193.8c0.7,0,1.3,0.6,1.3,1.3s-0.6,1.3-1.3,1.3s-1.3-0.6-1.3-1.3S215.7,193.8,216.4,193.8z M216.4,195.5
			c0.3,0,0.4-0.2,0.4-0.4c0-0.3-0.2-0.4-0.4-0.4s-0.4,0.2-0.4,0.4C216,195.3,216.2,195.5,216.4,195.5z"/>
	</g>
	<rect x="159.6" y="229.8" width="15.7" height="5.5"/>
	<g>
		<path class="st0" d="M160.1,234.3h0.7v-1.9c0-0.7-0.3-1-0.7-1.1l0.7-0.9h1.1v3.9h0.7v1h-2.5V234.3z"/>
		<path class="st0" d="M163.6,234l2.5-1.9c0.2-0.1,0.2-0.2,0.2-0.4c0-0.2-0.1-0.3-0.3-0.3h-1.2c-0.1,0-0.2,0.1-0.2,0.2v0.3h-1.1
			v-0.4c0-0.7,0.5-1.1,1.1-1.1h1.6c0.6,0,1.2,0.4,1.2,1.1v0.8l-2.7,2h2.7v1h-3.8V234z"/>
		<path class="st0" d="M169.5,230.4c0.7,0,1.3,0.6,1.3,1.3s-0.6,1.3-1.3,1.3s-1.3-0.6-1.3-1.3S168.8,230.4,169.5,230.4z
			 M169.5,232.1c0.3,0,0.4-0.2,0.4-0.4s-0.2-0.4-0.4-0.4c-0.3,0-0.4,0.2-0.4,0.4S169.3,232.1,169.5,232.1z M172.3,230.4h1l-2.7,4.9
			h-1L172.3,230.4z M173.4,232.8c0.7,0,1.3,0.6,1.3,1.3s-0.6,1.3-1.3,1.3s-1.3-0.6-1.3-1.3S172.7,232.8,173.4,232.8z M173.4,234.5
			c0.3,0,0.4-0.2,0.4-0.4c0-0.3-0.2-0.4-0.4-0.4s-0.4,0.2-0.4,0.4C173,234.3,173.1,234.5,173.4,234.5z"/>
	</g>
	<rect x="313.7" y="229.8" class="st1" width="15.7" height="5.5"/>
	<g>
		<path class="st0" d="M314.2,234.3h0.7v-1.9c0-0.7-0.3-1-0.7-1.1l0.7-0.9h1.1v3.9h0.7v1h-2.5V234.3z"/>
		<path class="st0" d="M317.8,234l2.5-1.9c0.2-0.1,0.2-0.2,0.2-0.4c0-0.2-0.1-0.3-0.3-0.3h-1.2c-0.1,0-0.2,0.1-0.2,0.2v0.3h-1.1
			v-0.4c0-0.7,0.5-1.1,1.1-1.1h1.6c0.6,0,1.2,0.4,1.2,1.1v0.8l-2.7,2h2.7v1h-3.8V234z"/>
		<path class="st0" d="M323.7,230.4c0.7,0,1.3,0.6,1.3,1.3s-0.6,1.3-1.3,1.3s-1.3-0.6-1.3-1.3S323,230.4,323.7,230.4z M323.7,232.1
			c0.3,0,0.4-0.2,0.4-0.4s-0.2-0.4-0.4-0.4c-0.3,0-0.4,0.2-0.4,0.4S323.4,232.1,323.7,232.1z M326.5,230.4h1l-2.7,4.9h-1
			L326.5,230.4z M327.5,232.8c0.7,0,1.3,0.6,1.3,1.3s-0.6,1.3-1.3,1.3s-1.3-0.6-1.3-1.3S326.8,232.8,327.5,232.8z M327.5,234.5
			c0.3,0,0.4-0.2,0.4-0.4c0-0.3-0.2-0.4-0.4-0.4s-0.4,0.2-0.4,0.4C327.1,234.3,327.3,234.5,327.5,234.5z"/>
	</g>
	<g>
		<path class="st0" d="M102.1,233.7l2.5-1.9c0.2-0.1,0.2-0.2,0.2-0.4c0-0.2-0.1-0.3-0.3-0.3h-1.2c-0.1,0-0.2,0.1-0.2,0.2v0.3H102
			v-0.4c0-0.7,0.5-1.1,1.1-1.1h1.6c0.6,0,1.2,0.4,1.2,1.1v0.8l-2.7,2h2.7v1h-3.8V233.7z"/>
		<path class="st0" d="M111.1,231.5c0,0.6-0.2,0.8-0.4,1c0.2,0.2,0.5,0.4,0.5,1.1c0,1-0.7,1.4-1.9,1.4h-0.5c-1.2,0-1.9-0.4-1.9-1.4
			c0-0.7,0.3-1,0.5-1.1c-0.2-0.2-0.4-0.4-0.4-1c0-0.7,0.5-1.4,1.8-1.4h0.5C110.7,230.1,111.1,230.8,111.1,231.5z M110,233.1h-1.9v1
			h1.9V233.1z M110,231.1h-1.7v1h1.7V231.1z"/>
		<path class="st0" d="M113.4,230.1c0.7,0,1.3,0.6,1.3,1.3s-0.6,1.3-1.3,1.3s-1.3-0.6-1.3-1.3S112.7,230.1,113.4,230.1z
			 M113.4,231.8c0.3,0,0.4-0.2,0.4-0.4s-0.2-0.4-0.4-0.4c-0.3,0-0.4,0.2-0.4,0.4S113.1,231.8,113.4,231.8z M116.2,230.1h1l-2.7,4.9
			h-1L116.2,230.1z M117.2,232.5c0.7,0,1.3,0.6,1.3,1.3s-0.6,1.3-1.3,1.3s-1.3-0.6-1.3-1.3S116.5,232.5,117.2,232.5z M117.2,234.2
			c0.3,0,0.4-0.2,0.4-0.4c0-0.3-0.2-0.4-0.4-0.4s-0.4,0.2-0.4,0.4C116.8,234,117,234.2,117.2,234.2z"/>
	</g>
	<g>
		<path class="st1" d="M339.5,115.4v-2.7c0-0.7,0.5-1.1,1.1-1.1h1.8c0.6,0,1.1,0.4,1.1,1.1v0.3h-1.1v-0.2c0-0.1-0.1-0.2-0.2-0.2
			h-1.7v1h1.9c0.6,0,1.1,0.4,1.1,1.1v0.7c0,0.7-0.5,1.1-1.1,1.1h-1.9C340.1,116.5,339.5,116.1,339.5,115.4z M340.7,115.5h1.9v-0.9
			h-1.9V115.5z"/>
		<path class="st1" d="M345.9,111.6c0.7,0,1.3,0.6,1.3,1.3s-0.6,1.3-1.3,1.3c-0.7,0-1.3-0.6-1.3-1.3S345.1,111.6,345.9,111.6z
			 M345.9,113.3c0.3,0,0.4-0.2,0.4-0.4s-0.2-0.4-0.4-0.4c-0.3,0-0.4,0.2-0.4,0.4S345.6,113.3,345.9,113.3z M348.7,111.6h1l-2.7,4.9
			h-1L348.7,111.6z M349.7,114c0.7,0,1.3,0.6,1.3,1.3s-0.6,1.3-1.3,1.3c-0.7,0-1.3-0.6-1.3-1.3S349,114,349.7,114z M349.7,115.7
			c0.3,0,0.4-0.2,0.4-0.4c0-0.3-0.2-0.4-0.4-0.4c-0.3,0-0.4,0.2-0.4,0.4C349.3,115.5,349.5,115.7,349.7,115.7z"/>
	</g>
	<g>
		<path class="st1" d="M340.9,192.3h-2.9v-1h4.1v1.1c-1.2,0.9-2,2.1-2.2,3.8h-1.1C339,194.5,339.8,193.2,340.9,192.3z"/>
		<path class="st1" d="M344.4,191.4c0.7,0,1.3,0.6,1.3,1.3s-0.6,1.3-1.3,1.3s-1.3-0.6-1.3-1.3S343.7,191.4,344.4,191.4z
			 M344.4,193.1c0.3,0,0.4-0.2,0.4-0.4s-0.2-0.4-0.4-0.4s-0.4,0.2-0.4,0.4S344.1,193.1,344.4,193.1z M347.2,191.4h1l-2.7,4.9h-1
			L347.2,191.4z M348.3,193.8c0.7,0,1.3,0.6,1.3,1.3s-0.6,1.3-1.3,1.3s-1.3-0.6-1.3-1.3S347.5,193.8,348.3,193.8z M348.3,195.5
			c0.3,0,0.4-0.2,0.4-0.4c0-0.3-0.2-0.4-0.4-0.4s-0.4,0.2-0.4,0.4C347.8,195.3,348,195.5,348.3,195.5z"/>
	</g>
	<g>
		<path class="st1" d="M340.9,152.5h-2.9v-1h4.1v1.1c-1.2,0.9-2,2.1-2.2,3.8h-1.1C339,154.7,339.8,153.4,340.9,152.5z"/>
		<path class="st1" d="M344.4,151.5c0.7,0,1.3,0.6,1.3,1.3s-0.6,1.3-1.3,1.3s-1.3-0.6-1.3-1.3S343.7,151.5,344.4,151.5z
			 M344.4,153.2c0.3,0,0.4-0.2,0.4-0.4s-0.2-0.4-0.4-0.4s-0.4,0.2-0.4,0.4S344.1,153.2,344.4,153.2z M347.2,151.5h1l-2.7,4.9h-1
			L347.2,151.5z M348.3,153.9c0.7,0,1.3,0.6,1.3,1.3s-0.6,1.3-1.3,1.3s-1.3-0.6-1.3-1.3S347.5,153.9,348.3,153.9z M348.3,155.6
			c0.3,0,0.4-0.2,0.4-0.4c0-0.3-0.2-0.4-0.4-0.4s-0.4,0.2-0.4,0.4C347.8,155.4,348,155.6,348.3,155.6z"/>
	</g>
	<g>
		<path class="st1" d="M340.5,233.9v-2.7c0-0.7,0.5-1.1,1.1-1.1h1.8c0.6,0,1.1,0.4,1.1,1.1v0.3h-1.1v-0.2c0-0.1-0.1-0.2-0.2-0.2
			h-1.7v1h1.9c0.6,0,1.1,0.4,1.1,1.1v0.7c0,0.7-0.5,1.1-1.1,1.1h-1.9C341,235,340.5,234.6,340.5,233.9z M341.6,234h1.9v-0.9h-1.9
			V234z"/>
		<path class="st1" d="M346.8,230.1c0.7,0,1.3,0.6,1.3,1.3s-0.6,1.3-1.3,1.3c-0.7,0-1.3-0.6-1.3-1.3S346.1,230.1,346.8,230.1z
			 M346.8,231.8c0.3,0,0.4-0.2,0.4-0.4s-0.2-0.4-0.4-0.4c-0.3,0-0.4,0.2-0.4,0.4S346.6,231.8,346.8,231.8z M349.6,230.1h1l-2.7,4.9
			h-1L349.6,230.1z M350.7,232.5c0.7,0,1.3,0.6,1.3,1.3s-0.6,1.3-1.3,1.3c-0.7,0-1.3-0.6-1.3-1.3S350,232.5,350.7,232.5z
			 M350.7,234.2c0.3,0,0.4-0.2,0.4-0.4c0-0.3-0.2-0.4-0.4-0.4c-0.3,0-0.4,0.2-0.4,0.4C350.2,234,350.4,234.2,350.7,234.2z"/>
	</g>
	<g>
		<path class="st0" d="M298.2,115.2l2.5-1.9c0.2-0.1,0.2-0.2,0.2-0.4c0-0.2-0.1-0.3-0.3-0.3h-1.2c-0.1,0-0.2,0.1-0.2,0.2v0.3H298
			v-0.4c0-0.7,0.5-1.1,1.1-1.1h1.6c0.6,0,1.2,0.4,1.2,1.1v0.8l-2.7,2h2.7v1h-3.8V115.2z"/>
		<path class="st0" d="M302.8,115.4v-0.3h1.1v0.2c0,0.1,0.1,0.2,0.2,0.2h1.7v-1h-1.5v-1h1.5v-1h-1.7c-0.1,0-0.2,0.1-0.2,0.2v0.2
			h-1.1v-0.3c0-0.7,0.5-1.1,1.1-1.1h1.8c0.6,0,1.2,0.4,1.2,1.1v0.7c0,0.4-0.3,0.6-0.6,0.7c0.3,0,0.6,0.3,0.6,0.7v0.7
			c0,0.7-0.5,1.1-1.1,1.1h-1.8C303.3,116.5,302.8,116.1,302.8,115.4z"/>
		<path class="st0" d="M309,111.6c0.7,0,1.3,0.6,1.3,1.3s-0.6,1.3-1.3,1.3c-0.7,0-1.3-0.6-1.3-1.3S308.2,111.6,309,111.6z
			 M309,113.3c0.3,0,0.4-0.2,0.4-0.4s-0.2-0.4-0.4-0.4c-0.3,0-0.4,0.2-0.4,0.4S308.7,113.3,309,113.3z M311.7,111.6h1l-2.7,4.9h-1
			L311.7,111.6z M312.8,114c0.7,0,1.3,0.6,1.3,1.3s-0.6,1.3-1.3,1.3c-0.7,0-1.3-0.6-1.3-1.3S312.1,114,312.8,114z M312.8,115.7
			c0.3,0,0.4-0.2,0.4-0.4c0-0.3-0.2-0.4-0.4-0.4s-0.4,0.2-0.4,0.4C312.4,115.5,312.6,115.7,312.8,115.7z"/>
	</g>
	<g>
		<path class="st0" d="M287.8,155.1l2.5-1.9c0.2-0.1,0.2-0.2,0.2-0.4c0-0.2-0.1-0.3-0.3-0.3h-1.2c-0.1,0-0.2,0.1-0.2,0.2v0.3h-1.1
			v-0.4c0-0.7,0.5-1.1,1.1-1.1h1.6c0.6,0,1.2,0.4,1.2,1.1v0.8l-2.7,2h2.7v1h-3.8V155.1z"/>
		<path class="st0" d="M295.4,152.5h-2.9v-1h4.1v1.1c-1.2,0.9-2,2.1-2.2,3.8h-1.1C293.5,154.7,294.3,153.3,295.4,152.5z"/>
		<path class="st0" d="M298.8,151.5c0.7,0,1.3,0.6,1.3,1.3s-0.6,1.3-1.3,1.3s-1.3-0.6-1.3-1.3S298.1,151.5,298.8,151.5z
			 M298.8,153.2c0.3,0,0.4-0.2,0.4-0.4s-0.2-0.4-0.4-0.4c-0.3,0-0.4,0.2-0.4,0.4S298.6,153.2,298.8,153.2z M301.6,151.5h1l-2.7,4.9
			h-1L301.6,151.5z M302.7,153.9c0.7,0,1.3,0.6,1.3,1.3s-0.6,1.3-1.3,1.3s-1.3-0.6-1.3-1.3S302,153.9,302.7,153.9z M302.7,155.6
			c0.3,0,0.4-0.2,0.4-0.4c0-0.3-0.2-0.4-0.4-0.4s-0.4,0.2-0.4,0.4C302.3,155.4,302.5,155.6,302.7,155.6z"/>
	</g>
	<g>
		<path class="st0" d="M270.1,195.1v-0.3h1.1v0.2c0,0.1,0.1,0.2,0.2,0.2h1.7v-1h-1.5v-1h1.5v-1h-1.7c-0.1,0-0.2,0.1-0.2,0.2v0.2
			h-1.1v-0.3c0-0.7,0.5-1.1,1.1-1.1h1.8c0.6,0,1.2,0.4,1.2,1.1v0.7c0,0.4-0.3,0.6-0.6,0.7c0.3,0,0.6,0.3,0.6,0.7v0.7
			c0,0.7-0.5,1.1-1.1,1.1h-1.8C270.6,196.2,270.1,195.9,270.1,195.1z"/>
		<path class="st0" d="M279.6,192.5v2.7c0,0.7-0.5,1.1-1.1,1.1h-1.8c-0.6,0-1.1-0.4-1.1-1.1v-0.3h1.1v0.2c0,0.1,0.1,0.2,0.2,0.2h1.7
			v-1h-1.9c-0.6,0-1.1-0.4-1.1-1.1v-0.7c0-0.7,0.5-1.1,1.1-1.1h1.9C279.1,191.4,279.6,191.7,279.6,192.5z M278.5,192.3h-1.9v1h1.9
			V192.3z"/>
		<path class="st0" d="M281.8,191.3c0.7,0,1.3,0.6,1.3,1.3s-0.6,1.3-1.3,1.3c-0.7,0-1.3-0.6-1.3-1.3S281,191.3,281.8,191.3z
			 M281.8,193.1c0.3,0,0.4-0.2,0.4-0.4s-0.2-0.4-0.4-0.4c-0.3,0-0.4,0.2-0.4,0.4S281.5,193.1,281.8,193.1z M284.6,191.4h1l-2.7,4.9
			h-1L284.6,191.4z M285.6,193.8c0.7,0,1.3,0.6,1.3,1.3s-0.6,1.3-1.3,1.3c-0.7,0-1.3-0.6-1.3-1.3S284.9,193.8,285.6,193.8z
			 M285.6,195.5c0.3,0,0.4-0.2,0.4-0.4c0-0.3-0.2-0.4-0.4-0.4s-0.4,0.2-0.4,0.4C285.2,195.3,285.4,195.5,285.6,195.5z"/>
	</g>
	<g>
		<path class="st0" d="M238.3,232.6h0.6v1h-0.6v0.5h0.4v1h-2.1v-1h0.5v-0.5h-2.7v-1.1l2.4-2.4h1.4V232.6z M235.7,232.6h1.5v-1.4
			L235.7,232.6z"/>
		<path class="st0" d="M239.8,233.7l2.5-1.9c0.2-0.1,0.2-0.2,0.2-0.4c0-0.2-0.1-0.3-0.3-0.3H241c-0.1,0-0.2,0.1-0.2,0.2v0.3h-1.1
			v-0.4c0-0.7,0.5-1.1,1.1-1.1h1.6c0.6,0,1.2,0.4,1.2,1.1v0.8l-2.7,2h2.7v1h-3.8V233.7z"/>
		<path class="st0" d="M245.7,230.1c0.7,0,1.3,0.6,1.3,1.3s-0.6,1.3-1.3,1.3s-1.3-0.6-1.3-1.3S245,230.1,245.7,230.1z M245.7,231.8
			c0.3,0,0.4-0.2,0.4-0.4s-0.2-0.4-0.4-0.4c-0.3,0-0.4,0.2-0.4,0.4S245.5,231.8,245.7,231.8z M248.5,230.1h1l-2.7,4.9h-1
			L248.5,230.1z M249.6,232.5c0.7,0,1.3,0.6,1.3,1.3s-0.6,1.3-1.3,1.3s-1.3-0.6-1.3-1.3S248.9,232.5,249.6,232.5z M249.6,234.2
			c0.3,0,0.4-0.2,0.4-0.4c0-0.3-0.2-0.4-0.4-0.4s-0.4,0.2-0.4,0.4C249.2,234,249.3,234.2,249.6,234.2z"/>
	</g>
	<rect x="263.7" y="114" class="st0" width="4.3" height="1"/>
	<rect x="251.1" y="153.2" class="st0" width="4.3" height="1"/>
	<g>
		<defs>
			<rect id="SVGID_11_" x="253.6" y="140.2" width="4.2" height="27"/>
		</defs>
		<clipPath id="SVGID_12_">
			<use xlink:href="#SVGID_11_"  style="overflow:visible;"/>
		</clipPath>
		<path class="st6" d="M291.6,174.6l-35.2-35.2l0.5-0.5l35.2,35.2L291.6,174.6z M288.7,174.6l-35.2-35.2l0.5-0.5l35.2,35.2
			L288.7,174.6z M285.7,174.6l-35.2-35.2l0.5-0.5l35.2,35.2L285.7,174.6z M282.7,174.6l-35.2-35.2l0.5-0.5l35.2,35.2L282.7,174.6z
			 M279.7,174.6l-35.2-35.2l0.5-0.5l35.2,35.2L279.7,174.6z M276.7,174.6l-35.2-35.2l0.5-0.5l35.2,35.2L276.7,174.6z M273.7,174.6
			l-35.2-35.2l0.5-0.5l35.2,35.2L273.7,174.6z M270.7,174.6l-35.2-35.2l0.5-0.5l35.2,35.2L270.7,174.6z M267.8,174.6l-35.2-35.2
			l0.5-0.5l35.2,35.2L267.8,174.6z M264.8,174.6l-35.2-35.2l0.5-0.5l35.2,35.2L264.8,174.6z M261.8,174.6l-35.2-35.2l0.5-0.5
			l35.2,35.2L261.8,174.6z M258.8,174.6l-35.2-35.2l0.5-0.5l35.2,35.2L258.8,174.6z M255.8,174.6l-35.2-35.2l0.5-0.5l35.2,35.2
			L255.8,174.6z M252.8,174.6l-35.2-35.2l0.5-0.5l35.2,35.2L252.8,174.6z M249.9,174.6l-35.2-35.2l0.5-0.5l35.2,35.2L249.9,174.6z"
			/>
	</g>
	<g>
		<path d="M50.2,274.4l-0.8-1.4h-0.6v1.4h-0.9v-4h1.9c0.8,0,1.3,0.5,1.3,1.3c0,0.7-0.4,1.1-0.9,1.2l0.9,1.5H50.2z M50.3,271.7
			c0-0.3-0.3-0.5-0.6-0.5h-0.9v1.1h0.9C50,272.2,50.3,272,50.3,271.7z"/>
		<path d="M51.8,274.4v-4h2.8v0.8h-2v0.8h1.9v0.7h-1.9v0.9h2v0.8H51.8z"/>
		<path d="M56.5,274.4l-1.5-4h1l1.1,3.1l1.1-3.1h1l-1.5,4H56.5z"/>
		<path d="M59.5,274.4v-4h2.8v0.8h-2v0.8h1.9v0.7h-1.9v0.9h2v0.8H59.5z"/>
		<path d="M65.8,274.4l-1.9-2.6v2.6H63v-4h0.9l1.9,2.5v-2.5h0.9v4H65.8z"/>
		<path d="M67.4,272.8v-2.4h0.9v2.4c0,0.6,0.3,0.9,0.9,0.9s0.9-0.4,0.9-0.9v-2.4H71v2.4c0,1-0.6,1.7-1.8,1.7S67.4,273.8,67.4,272.8z
			"/>
		<path d="M71.8,274.4v-4h2.8v0.8h-2v0.8h1.9v0.7h-1.9v0.9h2v0.8H71.8z"/>
		<path d="M75.1,273.8l0.5-0.6c0.3,0.3,0.7,0.5,1.3,0.5c0.5,0,0.7-0.2,0.7-0.4c0-0.7-2.3-0.2-2.3-1.7c0-0.7,0.6-1.2,1.5-1.2
			c0.6,0,1.2,0.2,1.6,0.6l-0.5,0.6c-0.3-0.3-0.8-0.4-1.2-0.4c-0.4,0-0.6,0.2-0.6,0.4c0,0.6,2.3,0.2,2.3,1.7c0,0.7-0.5,1.3-1.6,1.3
			C76,274.5,75.5,274.2,75.1,273.8z"/>
		<path d="M78.9,272c0-0.3,0.2-0.5,0.5-0.5s0.5,0.2,0.5,0.5c0,0.3-0.2,0.5-0.5,0.5S78.9,272.2,78.9,272z M78.9,274
			c0-0.3,0.2-0.5,0.5-0.5s0.5,0.2,0.5,0.5s-0.2,0.5-0.5,0.5S78.9,274.3,78.9,274z"/>
	</g>
	<g>
		<path d="M90.3,274.4l-0.2-0.7h-1.7l-0.3,0.7h-1l1.5-4h1.1l1.5,4H90.3z M89.2,271.3l-0.6,1.7h1.2L89.2,271.3z"/>
		<path d="M91.6,274.4v-4h1.6c1.3,0,2.1,0.8,2.1,2s-0.9,2-2.1,2H91.6z M94.5,272.4c0-0.7-0.4-1.3-1.3-1.3h-0.7v2.5h0.7
			C94,273.7,94.5,273.1,94.5,272.4z"/>
		<path d="M97,274.4l-1.5-4h1l1.1,3.1l1.1-3.1h1l-1.5,4H97z"/>
		<path d="M100,274.4v-4h2.8v0.8h-2v0.8h1.9v0.7h-1.9v0.9h2v0.8H100z"/>
		<path d="M105.8,274.4L105,273h-0.6v1.4h-0.9v-4h1.9c0.8,0,1.3,0.5,1.3,1.3c0,0.7-0.4,1.1-0.9,1.2l0.9,1.5H105.8z M105.9,271.7
			c0-0.3-0.3-0.5-0.6-0.5h-0.9v1.1h0.9C105.6,272.2,105.9,272,105.9,271.7z"/>
		<path d="M108.3,274.4v-3.2h-1.2v-0.8h3.2v0.8h-1.2v3.2H108.3z"/>
		<path d="M110.9,274.4v-4h0.9v4H110.9z"/>
		<path d="M112.3,273.8l0.5-0.6c0.3,0.3,0.7,0.5,1.3,0.5c0.5,0,0.7-0.2,0.7-0.4c0-0.7-2.3-0.2-2.3-1.7c0-0.7,0.6-1.2,1.5-1.2
			c0.6,0,1.2,0.2,1.6,0.6l-0.5,0.6c-0.3-0.3-0.8-0.4-1.2-0.4c-0.4,0-0.6,0.2-0.6,0.4c0,0.6,2.3,0.2,2.3,1.7c0,0.7-0.5,1.3-1.6,1.3
			C113.2,274.5,112.7,274.2,112.3,273.8z"/>
		<path d="M116.2,274.4v-4h0.9v4H116.2z"/>
		<path d="M120.6,274.4l-1.9-2.6v2.6h-0.9v-4h0.9l1.9,2.5v-2.5h0.9v4H120.6z"/>
		<path d="M122.1,272.4c0-1.3,1-2.1,2.1-2.1c0.8,0,1.4,0.4,1.7,0.9l-0.7,0.4c-0.2-0.3-0.5-0.5-0.9-0.5c-0.7,0-1.3,0.6-1.3,1.3
			s0.5,1.3,1.3,1.3c0.4,0,0.7-0.2,0.9-0.3v-0.5H124v-0.7h1.9v1.5c-0.4,0.5-1,0.8-1.7,0.8C123,274.5,122.1,273.7,122.1,272.4z"/>
	</g>
	<g>
		<path d="M142.3,274.4v-4h1.9c0.9,0,1.3,0.6,1.3,1.3c0,0.7-0.5,1.3-1.3,1.3h-1v1.4H142.3z M144.7,271.7c0-0.3-0.3-0.5-0.6-0.5h-0.9
			v1.1h0.9C144.4,272.2,144.7,272,144.7,271.7z"/>
		<path d="M146.1,274.4v-2.9h0.8v0.4c0.2-0.3,0.6-0.5,0.9-0.5v0.7c-0.1,0-0.1,0-0.2,0c-0.3,0-0.6,0.1-0.7,0.3v1.9H146.1z"/>
		<path d="M148.2,270.7c0-0.3,0.2-0.4,0.5-0.4c0.3,0,0.5,0.2,0.5,0.4s-0.2,0.5-0.5,0.5C148.4,271.2,148.2,271,148.2,270.7z
			 M148.3,274.4v-2.9h0.8v2.9H148.3z"/>
		<path d="M151.8,274.4v-1.8c0-0.4-0.2-0.5-0.5-0.5c-0.3,0-0.5,0.2-0.7,0.3v1.9h-0.8v-2.9h0.8v0.4c0.2-0.2,0.5-0.5,1-0.5
			c0.6,0,0.9,0.4,0.9,0.9v2H151.8z"/>
		<path d="M153.5,273.7v-1.5H153v-0.7h0.5v-0.8h0.8v0.8h0.6v0.7h-0.6v1.3c0,0.2,0.1,0.3,0.3,0.3c0.1,0,0.2,0,0.3-0.1l0.2,0.6
			c-0.1,0.1-0.3,0.2-0.6,0.2C153.8,274.5,153.5,274.2,153.5,273.7z"/>
	</g>
	<g>
		<path d="M168,274.4v-4.3h1.7c1.4,0,2.3,0.9,2.3,2.2c0,1.3-0.9,2.2-2.3,2.2H168z M171,272.2c0-0.8-0.5-1.4-1.4-1.4h-0.8v2.7h0.8
			C170.5,273.6,171,273,171,272.2z"/>
		<path d="M172.6,270.4c0-0.3,0.2-0.5,0.5-0.5c0.3,0,0.5,0.2,0.5,0.5s-0.2,0.5-0.5,0.5C172.8,270.9,172.6,270.7,172.6,270.4z
			 M172.6,274.4v-3.1h0.8v3.1H172.6z"/>
		<path d="M174.3,275.2l0.4-0.6c0.3,0.3,0.6,0.4,1,0.4c0.4,0,0.9-0.2,0.9-0.8v-0.3c-0.2,0.3-0.6,0.5-1,0.5c-0.8,0-1.4-0.6-1.4-1.6
			c0-1,0.6-1.6,1.4-1.6c0.4,0,0.7,0.2,1,0.5v-0.4h0.8v2.9c0,1.2-0.9,1.5-1.7,1.5C175.1,275.7,174.7,275.6,174.3,275.2z M176.5,273.3
			v-1c-0.1-0.2-0.4-0.4-0.7-0.4c-0.5,0-0.8,0.3-0.8,0.9c0,0.5,0.3,0.9,0.8,0.9C176,273.7,176.3,273.5,176.5,273.3z"/>
		<path d="M178.1,270.4c0-0.3,0.2-0.5,0.5-0.5c0.3,0,0.5,0.2,0.5,0.5s-0.2,0.5-0.5,0.5C178.3,270.9,178.1,270.7,178.1,270.4z
			 M178.2,274.4v-3.1h0.8v3.1H178.2z"/>
		<path d="M180,273.6V272h-0.5v-0.7h0.5v-0.9h0.8v0.9h0.6v0.7h-0.6v1.4c0,0.2,0.1,0.3,0.3,0.3c0.1,0,0.2,0,0.3-0.1l0.2,0.6
			c-0.1,0.1-0.3,0.2-0.7,0.2C180.3,274.5,180,274.2,180,273.6z"/>
		<path d="M183.9,274.4v-0.3c-0.2,0.3-0.6,0.4-1,0.4c-0.5,0-1.1-0.3-1.1-1c0-0.7,0.6-1,1.1-1c0.4,0,0.8,0.1,1,0.4v-0.4
			c0-0.3-0.3-0.5-0.7-0.5c-0.3,0-0.6,0.1-0.9,0.4l-0.3-0.6c0.4-0.3,0.9-0.5,1.4-0.5c0.7,0,1.4,0.3,1.4,1.2v2H183.9z M183.9,273.7
			v-0.4c-0.1-0.2-0.4-0.3-0.7-0.3c-0.3,0-0.6,0.2-0.6,0.5c0,0.3,0.3,0.5,0.6,0.5C183.5,273.9,183.8,273.8,183.9,273.7z"/>
		<path d="M185.6,274.4v-4.3h0.8v4.3H185.6z"/>
	</g>
	<rect x="132.7" y="268.9" width="6.3" height="6.3"/>
	<rect x="158" y="268.9" width="6.3" height="6.3"/>
	<g>
		<defs>
			<rect id="SVGID_13_" x="158" y="268.9" width="6.3" height="6.3"/>
		</defs>
		<clipPath id="SVGID_14_">
			<use xlink:href="#SVGID_13_"  style="overflow:visible;"/>
		</clipPath>
		<path class="st7" d="M200.2,303.2L165,268.1l0.5-0.5l35.2,35.2L200.2,303.2z M194.2,303.2L159,268.1l0.5-0.5l35.2,35.2
			L194.2,303.2z M191.2,303.2l-35.2-35.2l0.5-0.5l35.2,35.2L191.2,303.2z M188.2,303.2l-35.2-35.2l0.5-0.5l35.2,35.2L188.2,303.2z
			 M185.3,303.2l-35.2-35.2l0.5-0.5l35.2,35.2L185.3,303.2z M182.3,303.2l-35.2-35.2l0.5-0.5l35.2,35.2L182.3,303.2z M179.3,303.2
			l-35.2-35.2l0.5-0.5l35.2,35.2L179.3,303.2z M173.3,303.2l-35.2-35.2l0.5-0.5l35.2,35.2L173.3,303.2z M167.3,303.2l-35.2-35.2
			l0.5-0.5l35.2,35.2L167.3,303.2z M161.4,303.2l-35.2-35.2l0.5-0.5l35.2,35.2L161.4,303.2z M197.2,303.2L162,268.1l0.5-0.5
			l35.2,35.2L197.2,303.2z M176.3,303.2l-35.2-35.2l0.5-0.5l35.2,35.2L176.3,303.2z M170.3,303.2l-35.2-35.2l0.5-0.5l35.2,35.2
			L170.3,303.2z M164.4,303.2l-35.2-35.2l0.5-0.5l35.2,35.2L164.4,303.2z M158.4,303.2l-35.2-35.2l0.5-0.5l35.2,35.2L158.4,303.2z"
			/>
	</g>
	<rect x="127.8" y="272" width="3" height="1"/>
	<g>
		<path d="M332.1,272.4c0-1.2,0.9-2.1,2.1-2.1c1.2,0,2.1,0.9,2.1,2.1s-0.9,2.1-2.1,2.1C333,274.5,332.1,273.6,332.1,272.4z
			 M335.4,272.4c0-0.7-0.5-1.3-1.2-1.3c-0.7,0-1.2,0.6-1.2,1.3c0,0.7,0.5,1.3,1.2,1.3C334.9,273.7,335.4,273.2,335.4,272.4z"/>
		<path d="M337.7,274.4v-3.2h-1.2v-0.8h3.2v0.8h-1.2v3.2H337.7z"/>
		<path d="M343,274.4v-1.7h-1.9v1.7h-0.9v-4h0.9v1.6h1.9v-1.6h0.9v4H343z"/>
		<path d="M344.7,274.4v-4h2.8v0.8h-2v0.8h1.9v0.7h-1.9v0.9h2v0.8H344.7z"/>
		<path d="M350.5,274.4l-0.8-1.4h-0.6v1.4h-0.9v-4h1.9c0.8,0,1.3,0.5,1.3,1.3c0,0.7-0.4,1.1-0.9,1.2l0.9,1.5H350.5z M350.6,271.7
			c0-0.3-0.3-0.5-0.6-0.5h-0.9v1.1h0.9C350.3,272.2,350.6,272,350.6,271.7z"/>
	</g>
	<rect x="360.3" y="268.9" class="st0" width="6.3" height="6.3"/>
	<rect x="354.2" y="272" width="3" height="1"/>
	<g>
		<path d="M193.6,272.4c0-1.2,0.9-2.1,2.1-2.1c0.9,0,1.4,0.5,1.7,1l-0.7,0.4c-0.2-0.3-0.5-0.6-0.9-0.6c-0.7,0-1.3,0.6-1.3,1.3
			s0.5,1.3,1.3,1.3c0.4,0,0.8-0.3,0.9-0.6l0.7,0.4c-0.3,0.5-0.8,1-1.7,1C194.5,274.5,193.6,273.6,193.6,272.4z"/>
		<path d="M197.9,274.4v-4h0.9v4H197.9z"/>
		<path d="M201.8,274.4L201,273h-0.6v1.4h-0.9v-4h1.9c0.8,0,1.3,0.5,1.3,1.3c0,0.7-0.4,1.1-0.9,1.2l0.9,1.5H201.8z M201.9,271.7
			c0-0.3-0.3-0.5-0.6-0.5h-0.9v1.1h0.9C201.7,272.2,201.9,272,201.9,271.7z"/>
		<path d="M203.3,272.4c0-1.2,0.9-2.1,2.1-2.1c0.9,0,1.4,0.5,1.7,1l-0.7,0.4c-0.2-0.3-0.5-0.6-0.9-0.6c-0.7,0-1.3,0.6-1.3,1.3
			s0.5,1.3,1.3,1.3c0.4,0,0.8-0.3,0.9-0.6l0.7,0.4c-0.3,0.5-0.8,1-1.7,1C204.2,274.5,203.3,273.6,203.3,272.4z"/>
		<path d="M207.6,272.8v-2.4h0.9v2.4c0,0.6,0.3,0.9,0.9,0.9s0.9-0.4,0.9-0.9v-2.4h0.9v2.4c0,1-0.6,1.7-1.8,1.7
			S207.6,273.8,207.6,272.8z"/>
		<path d="M212,274.4v-4h0.9v3.2h1.7v0.8H212z"/>
		<path d="M218,274.4l-0.2-0.7H216l-0.3,0.7h-1l1.5-4h1.1l1.5,4H218z M216.9,271.3l-0.6,1.7h1.2L216.9,271.3z"/>
		<path d="M219.9,274.4v-3.2h-1.2v-0.8h3.2v0.8h-1.2v3.2H219.9z"/>
		<path d="M222.5,274.4v-4h0.9v4H222.5z"/>
		<path d="M224,272.4c0-1.2,0.9-2.1,2.1-2.1c1.2,0,2.1,0.9,2.1,2.1s-0.9,2.1-2.1,2.1C224.8,274.5,224,273.6,224,272.4z M227.3,272.4
			c0-0.7-0.5-1.3-1.2-1.3c-0.7,0-1.2,0.6-1.2,1.3c0,0.7,0.5,1.3,1.2,1.3C226.8,273.7,227.3,273.2,227.3,272.4z"/>
		<path d="M231.5,274.4l-1.9-2.6v2.6h-0.9v-4h0.9l1.9,2.5v-2.5h0.9v4H231.5z"/>
	</g>
	<g>
		<path d="M248.6,274.4v-4h1.9c0.9,0,1.3,0.6,1.3,1.3c0,0.7-0.5,1.3-1.3,1.3h-1v1.4H248.6z M251,271.7c0-0.3-0.3-0.5-0.6-0.5h-0.9
			v1.1h0.9C250.7,272.2,251,272,251,271.7z"/>
		<path d="M252.4,274.4v-2.9h0.8v0.4c0.2-0.3,0.6-0.5,0.9-0.5v0.7c-0.1,0-0.1,0-0.2,0c-0.3,0-0.6,0.1-0.7,0.3v1.9H252.4z"/>
		<path d="M254.5,270.7c0-0.3,0.2-0.4,0.5-0.4c0.3,0,0.5,0.2,0.5,0.4s-0.2,0.5-0.5,0.5C254.7,271.2,254.5,271,254.5,270.7z
			 M254.6,274.4v-2.9h0.8v2.9H254.6z"/>
		<path d="M258.1,274.4v-1.8c0-0.4-0.2-0.5-0.5-0.5c-0.3,0-0.5,0.2-0.7,0.3v1.9h-0.8v-2.9h0.8v0.4c0.2-0.2,0.5-0.5,1-0.5
			c0.6,0,0.9,0.4,0.9,0.9v2H258.1z"/>
		<path d="M259.8,273.7v-1.5h-0.5v-0.7h0.5v-0.8h0.8v0.8h0.6v0.7h-0.6v1.3c0,0.2,0.1,0.3,0.3,0.3c0.1,0,0.2,0,0.3-0.1l0.2,0.6
			c-0.1,0.1-0.3,0.2-0.6,0.2C260.1,274.5,259.8,274.2,259.8,273.7z"/>
	</g>
	<g>
		<path d="M274.7,274.4v-4h1.6c1.3,0,2.1,0.8,2.1,2s-0.9,2-2.1,2H274.7z M277.6,272.4c0-0.7-0.4-1.3-1.3-1.3h-0.7v2.5h0.7
			C277.1,273.7,277.6,273.1,277.6,272.4z"/>
		<path d="M279,270.7c0-0.3,0.2-0.4,0.5-0.4c0.3,0,0.5,0.2,0.5,0.4s-0.2,0.5-0.5,0.5C279.2,271.2,279,271,279,270.7z M279,274.4
			v-2.9h0.8v2.9H279z"/>
		<path d="M280.5,275.2l0.3-0.6c0.2,0.3,0.5,0.4,0.9,0.4c0.4,0,0.8-0.2,0.8-0.7v-0.3c-0.2,0.3-0.5,0.5-0.9,0.5
			c-0.7,0-1.3-0.5-1.3-1.5c0-0.9,0.5-1.5,1.3-1.5c0.3,0,0.7,0.2,0.9,0.4v-0.4h0.8v2.7c0,1.1-0.9,1.4-1.6,1.4
			C281.3,275.6,280.9,275.5,280.5,275.2z M282.6,273.4v-0.9c-0.1-0.2-0.4-0.3-0.7-0.3c-0.4,0-0.7,0.3-0.7,0.8s0.3,0.8,0.7,0.8
			C282.2,273.7,282.5,273.6,282.6,273.4z"/>
		<path d="M284.1,270.7c0-0.3,0.2-0.4,0.5-0.4c0.3,0,0.5,0.2,0.5,0.4s-0.2,0.5-0.5,0.5C284.3,271.2,284.1,271,284.1,270.7z
			 M284.1,274.4v-2.9h0.8v2.9H284.1z"/>
		<path d="M285.8,273.7v-1.5h-0.5v-0.7h0.5v-0.8h0.8v0.8h0.6v0.7h-0.6v1.3c0,0.2,0.1,0.3,0.3,0.3c0.1,0,0.2,0,0.3-0.1l0.2,0.6
			c-0.1,0.1-0.3,0.2-0.6,0.2C286.1,274.5,285.8,274.2,285.8,273.7z"/>
		<path d="M289.5,274.4v-0.3c-0.2,0.2-0.5,0.4-0.9,0.4c-0.5,0-1-0.3-1-1c0-0.7,0.5-0.9,1-0.9c0.4,0,0.7,0.1,0.9,0.4v-0.4
			c0-0.3-0.3-0.5-0.6-0.5c-0.3,0-0.6,0.1-0.8,0.3l-0.3-0.5c0.4-0.3,0.8-0.5,1.3-0.5c0.7,0,1.3,0.3,1.3,1.1v1.9H289.5z M289.5,273.7
			v-0.4c-0.1-0.2-0.4-0.3-0.6-0.3c-0.3,0-0.5,0.2-0.5,0.4c0,0.3,0.2,0.4,0.5,0.4C289.1,274,289.3,273.9,289.5,273.7z"/>
		<path d="M291,274.4v-4h0.8v4H291z"/>
		<path d="M293.6,273.8l0.5-0.6c0.3,0.3,0.7,0.5,1.3,0.5c0.5,0,0.7-0.2,0.7-0.4c0-0.7-2.3-0.2-2.3-1.7c0-0.7,0.6-1.2,1.5-1.2
			c0.6,0,1.2,0.2,1.6,0.6l-0.5,0.6c-0.3-0.3-0.8-0.4-1.2-0.4c-0.4,0-0.6,0.2-0.6,0.4c0,0.6,2.3,0.2,2.3,1.7c0,0.7-0.5,1.3-1.6,1.3
			C294.5,274.5,294,274.2,293.6,273.8z"/>
		<path d="M299.4,274.4V274c-0.2,0.2-0.5,0.4-1,0.4c-0.6,0-0.9-0.3-0.9-0.9v-2.1h0.8v1.8c0,0.4,0.2,0.5,0.5,0.5
			c0.3,0,0.5-0.2,0.7-0.3v-2h0.8v2.9H299.4z"/>
		<path d="M301,274.4v-4h0.8v1.5c0.2-0.3,0.6-0.4,0.9-0.4c0.7,0,1.3,0.6,1.3,1.5c0,1-0.6,1.5-1.3,1.5c-0.3,0-0.7-0.2-0.9-0.4v0.4
			H301z M302.4,273.8c0.4,0,0.7-0.3,0.7-0.8s-0.3-0.8-0.7-0.8c-0.2,0-0.5,0.1-0.7,0.3v1C301.8,273.7,302.1,273.8,302.4,273.8z"/>
		<path d="M304.2,274l0.3-0.5c0.2,0.2,0.6,0.4,1,0.4c0.3,0,0.5-0.1,0.5-0.3c0-0.5-1.7-0.1-1.7-1.2c0-0.5,0.4-0.9,1.2-0.9
			c0.5,0,0.9,0.2,1.2,0.4l-0.3,0.5c-0.2-0.2-0.5-0.3-0.9-0.3c-0.3,0-0.5,0.1-0.5,0.3c0,0.4,1.7,0.1,1.7,1.2c0,0.5-0.5,0.9-1.3,0.9
			C305,274.5,304.6,274.3,304.2,274z"/>
		<path d="M307.2,273c0-0.9,0.6-1.5,1.5-1.5c0.6,0,1,0.3,1.1,0.5l-0.5,0.5c-0.1-0.2-0.3-0.3-0.6-0.3c-0.5,0-0.8,0.3-0.8,0.8
			s0.3,0.8,0.8,0.8c0.3,0,0.5-0.1,0.6-0.3l0.5,0.5c-0.2,0.3-0.6,0.5-1.1,0.5C307.8,274.5,307.2,273.9,307.2,273z"/>
		<path d="M310.4,274.4v-2.9h0.8v0.4c0.2-0.3,0.6-0.5,0.9-0.5v0.7c-0.1,0-0.1,0-0.2,0c-0.3,0-0.6,0.1-0.7,0.3v1.9H310.4z"/>
		<path d="M312.5,270.7c0-0.3,0.2-0.4,0.5-0.4c0.3,0,0.5,0.2,0.5,0.4s-0.2,0.5-0.5,0.5C312.7,271.2,312.5,271,312.5,270.7z
			 M312.6,274.4v-2.9h0.8v2.9H312.6z"/>
		<path d="M314.9,274v1.5h-0.8v-4h0.8v0.4c0.2-0.3,0.5-0.4,0.9-0.4c0.7,0,1.3,0.6,1.3,1.5s-0.5,1.5-1.3,1.5
			C315.5,274.5,315.1,274.3,314.9,274z M316.3,273c0-0.5-0.3-0.8-0.7-0.8c-0.2,0-0.5,0.1-0.7,0.3v1c0.1,0.2,0.4,0.3,0.7,0.3
			C316,273.8,316.3,273.5,316.3,273z"/>
		<path d="M317.8,273.7v-1.5h-0.5v-0.7h0.5v-0.8h0.8v0.8h0.6v0.7h-0.6v1.3c0,0.2,0.1,0.3,0.3,0.3c0.1,0,0.2,0,0.3-0.1l0.2,0.6
			c-0.1,0.1-0.3,0.2-0.6,0.2C318.1,274.5,317.8,274.2,317.8,273.7z"/>
		<path d="M319.6,270.7c0-0.3,0.2-0.4,0.5-0.4c0.3,0,0.5,0.2,0.5,0.4s-0.2,0.5-0.5,0.5C319.9,271.2,319.6,271,319.6,270.7z
			 M319.7,274.4v-2.9h0.8v2.9H319.7z"/>
		<path d="M321.1,273c0-0.8,0.6-1.5,1.5-1.5c1,0,1.5,0.7,1.5,1.5c0,0.8-0.6,1.5-1.5,1.5C321.7,274.5,321.1,273.8,321.1,273z
			 M323.4,273c0-0.5-0.3-0.8-0.7-0.8c-0.5,0-0.7,0.4-0.7,0.8c0,0.5,0.3,0.8,0.7,0.8C323.1,273.8,323.4,273.4,323.4,273z"/>
		<path d="M326.7,274.4v-1.8c0-0.4-0.2-0.5-0.5-0.5c-0.3,0-0.5,0.2-0.7,0.3v1.9h-0.8v-2.9h0.8v0.4c0.2-0.2,0.5-0.5,1-0.5
			c0.6,0,0.9,0.4,0.9,0.9v2H326.7z"/>
	</g>
	<rect x="240" y="268.9" class="st1" width="6.3" height="6.3"/>
	<rect x="265.5" y="268.9" class="st1" width="6.3" height="6.3"/>
	<rect x="234.5" y="272" width="3" height="1"/>
	<g>
		<defs>
			<rect id="SVGID_15_" x="265.6" y="268.9" width="6.3" height="6.3"/>
		</defs>
		<clipPath id="SVGID_16_">
			<use xlink:href="#SVGID_15_"  style="overflow:visible;"/>
		</clipPath>
		<path class="st8" d="M307.8,303.3l-35.2-35.2l0.5-0.5l35.2,35.2L307.8,303.3z M298.8,303.3l-35.2-35.2l0.5-0.5l35.2,35.2
			L298.8,303.3z M295.9,303.3l-35.2-35.2l0.5-0.5l35.2,35.2L295.9,303.3z M289.9,303.3l-35.2-35.2l0.5-0.5l35.2,35.2L289.9,303.3z
			 M286.9,303.3l-35.2-35.2l0.5-0.5l35.2,35.2L286.9,303.3z M280.9,303.3l-35.2-35.2l0.5-0.5l35.2,35.2L280.9,303.3z M275,303.3
			l-35.2-35.2l0.5-0.5l35.2,35.2L275,303.3z M269,303.3l-35.2-35.2l0.5-0.5l35.2,35.2L269,303.3z M304.8,303.3l-35.2-35.2l0.5-0.5
			l35.2,35.2L304.8,303.3z M301.8,303.3l-35.2-35.2l0.5-0.5l35.2,35.2L301.8,303.3z M292.9,303.3l-35.2-35.2l0.5-0.5l35.2,35.2
			L292.9,303.3z M283.9,303.3l-35.2-35.2l0.5-0.5l35.2,35.2L283.9,303.3z M277.9,303.3l-35.2-35.2l0.5-0.5l35.2,35.2L277.9,303.3z
			 M272,303.3l-35.2-35.2l0.5-0.5l35.2,35.2L272,303.3z M266,303.3l-35.2-35.2l0.5-0.5l35.2,35.2L266,303.3z"/>
	</g>
</g>
</svg>
